<?xml version="1.0" encoding="utf-8"?>
<!-- Generator: Adobe Illustrator 25.2.1, SVG Export Plug-In . SVG Version: 6.00 Build 0)  -->
<svg version="1.1" id="Camada_1" xmlns="http://www.w3.org/2000/svg" xmlns:xlink="http://www.w3.org/1999/xlink" x="0px" y="0px"
	 viewBox="0 0 1366 768" style="enable-background:new 0 0 1366 768;" xml:space="preserve">
<style type="text/css">
	.st0{fill:#C41627;}
	.st1{display:none;fill:#C41627;}
	.st2{font-family:'TwCenMT-CondensedBold';}
	.st3{font-size:58.2451px;}
</style>
<path class="st0" d="M697.9,449.2c35.3,0,64-29.5,64-65.9v-3.9h14.8c0.4,0,0.8-0.3,0.8-0.8v-12.4c0-0.4-0.4-0.8-0.8-0.8h-14.8v-48.6
	l-13.5-4.7l-43.5-15.1v14.8l43.5,15.1v56.3l0,0c0,28.5-22.5,51.6-50.3,51.6c-27.8,0-50.7-23.1-50.7-51.6V327l43.5-15.1v-14.8
	l-43.5,15.1l-13.5,4.7v49.3h-14.6c-0.4,0-0.8,0.3-0.8,0.8v12.4c0,0.4,0.3,0.8,0.8,0.8h14.6v3.2C633.9,419.7,662.6,449.2,697.9,449.2
	z"/>
<path class="st0" d="M598.7,336.6c-0.5,0-0.8,0.4-0.8,0.8v72.3c0,0.5,0.4,0.8,0.8,0.8h15.6c0.5,0,0.8-0.4,0.8-0.8v-72.3
	c0-0.5-0.4-0.8-0.8-0.8H598.7z"/>
<path class="st0" d="M594.5,404.5v-61.4c0-0.5-0.4-0.8-0.8-0.8H578c-0.5,0-0.8,0.4-0.8,0.8v61.4c0,0.5,0.4,0.8,0.8,0.8h15.6
	C594.1,405.3,594.5,405,594.5,404.5z"/>
<path class="st0" d="M573,349.3h-15.6c-0.5,0-0.8,0.4-0.8,0.8v13.6l-5.8,2.8c-0.2,0.1-0.3,0.3-0.3,0.5v13.3c0,0.2,0.1,0.4,0.3,0.5
	l5.8,3v12c0,0.5,0.4,0.8,0.8,0.8H573c0.5,0,0.8-0.4,0.8-0.8v-45.7C573.8,349.6,573.4,349.3,573,349.3z"/>
<path class="st0" d="M781.7,336c-0.5,0-0.8,0.4-0.8,0.8v72.3c0,0.5,0.4,0.8,0.8,0.8h15.6c0.5,0,0.8-0.4,0.8-0.8v-72.3
	c0-0.5-0.4-0.8-0.8-0.8H781.7z"/>
<path class="st0" d="M818,341.6h-15.6c-0.5,0-0.8,0.4-0.8,0.8v61.4c0,0.5,0.4,0.8,0.8,0.8H818c0.5,0,0.8-0.4,0.8-0.8v-61.4
	C818.8,342,818.5,341.6,818,341.6z"/>
<path class="st0" d="M843.2,367.8l-5.8-2.8v-13.6c0-0.5-0.4-0.8-0.8-0.8H821c-0.5,0-0.8,0.4-0.8,0.8v45.7c0,0.5,0.4,0.8,0.8,0.8
	h15.6c0.5,0,0.8-0.4,0.8-0.8v-12l5.8-3c0.2-0.1,0.3-0.3,0.3-0.5v-13.3C843.6,368.1,843.4,367.9,843.2,367.8z"/>
<path class="st0" d="M721.2,380.1c0,10.4-6.9,19.3-16.3,22.2v14.4c16.9-3.2,29.4-18,29.8-35.8l0,0v-0.8v-14v-14.6v-14.3v-0.5
	l-29.8-10.3v14.8l16.3,5.6v14.6l-16.3-5.6v14.8l16.3,5.6L721.2,380.1L721.2,380.1z"/>
<path class="st0" d="M690.9,370.6v-14.8v-14.6V327v-0.5l-29.8,10.3v14.8l16.3-5.6v14.6l-16.3,5.6v2.2v12.6l0,0
	c0.4,17.8,12.9,32.6,29.8,35.8v-14.4c-9.5-3-16.3-11.8-16.3-22.2l0-3.9L690.9,370.6z"/>
<text transform="matrix(1.4799 0 0 1 549.3126 478.6628)" class="st1 st2 st3">SUPER FIT</text>
</svg>
