<?xml version="1.0" encoding="utf-8"?>
<!-- Generator: Adobe Illustrator 26.0.1, SVG Export Plug-In . SVG Version: 6.00 Build 0)  -->
<svg version="1.1" id="Camada_1" xmlns="http://www.w3.org/2000/svg" xmlns:xlink="http://www.w3.org/1999/xlink" x="0px" y="0px"
	 viewBox="0 0 1366 768" style="enable-background:new 0 0 1366 768;" xml:space="preserve">
<style type="text/css">
	.st0{fill:url(#SVGID_1_);}
	.st1{fill:url(#SVGID_00000151512176729018265090000006459099177252414896_);}
	.st2{fill:url(#SVGID_00000005946614996331850900000012782651678040753561_);}
	.st3{fill:url(#SVGID_00000058552473283487236650000016159117529183139999_);}
	.st4{fill:url(#SVGID_00000141449295811053209000000009538232506406320027_);}
	.st5{fill:url(#SVGID_00000052103638443264006450000012042349656311974025_);}
	.st6{fill:url(#SVGID_00000073703501742571597580000008598876893913056447_);}
	.st7{fill:url(#SVGID_00000087388242875683810480000012617809095181086898_);}
	.st8{fill:url(#SVGID_00000065047997400025572380000007700055383061149625_);}
</style>
<linearGradient id="SVGID_1_" gradientUnits="userSpaceOnUse" x1="373.5721" y1="398.8268" x2="432.0181" y2="398.8268">
	<stop  offset="0" style="stop-color:#FF7F83"/>
	<stop  offset="0.092" style="stop-color:#FF767B"/>
	<stop  offset="0.245" style="stop-color:#FF5C65"/>
	<stop  offset="0.4388" style="stop-color:#FF3342"/>
	<stop  offset="0.5629" style="stop-color:#FF1528"/>
	<stop  offset="0.8652" style="stop-color:#D4001D"/>
	<stop  offset="0.9944" style="stop-color:#ED1C24"/>
</linearGradient>
<path class="st0" d="M376.34,273.62c-1.53,0-2.77,1.24-2.77,2.77v244.87c0,1.53,1.24,2.77,2.77,2.77h52.9
	c1.53,0,2.77-1.24,2.77-2.77V276.39c0-1.53-1.24-2.77-2.77-2.77H376.34z"/>
<linearGradient id="SVGID_00000114045796067209491830000003126483524262004352_" gradientUnits="userSpaceOnUse" x1="303.5383" y1="399.5827" x2="361.9843" y2="399.5827">
	<stop  offset="0" style="stop-color:#FF7F83"/>
	<stop  offset="0.092" style="stop-color:#FF767B"/>
	<stop  offset="0.245" style="stop-color:#FF5C65"/>
	<stop  offset="0.4388" style="stop-color:#FF3342"/>
	<stop  offset="0.5629" style="stop-color:#FF1528"/>
	<stop  offset="0.8652" style="stop-color:#D4001D"/>
	<stop  offset="0.9944" style="stop-color:#ED1C24"/>
</linearGradient>
<path style="fill:url(#SVGID_00000114045796067209491830000003126483524262004352_);" d="M361.98,503.63V295.54
	c0-1.53-1.24-2.77-2.77-2.77h-52.9c-1.53,0-2.77,1.24-2.77,2.77v208.09c0,1.53,1.24,2.77,2.77,2.77h52.9
	C360.74,506.4,361.98,505.16,361.98,503.63z"/>
<linearGradient id="SVGID_00000109708580608489150470000016827648046868890288_" gradientUnits="userSpaceOnUse" x1="212.8466" y1="396.5596" x2="291.9505" y2="396.5596">
	<stop  offset="0" style="stop-color:#FF7F83"/>
	<stop  offset="0.092" style="stop-color:#FF767B"/>
	<stop  offset="0.245" style="stop-color:#FF5C65"/>
	<stop  offset="0.4388" style="stop-color:#FF3342"/>
	<stop  offset="0.5629" style="stop-color:#FF1528"/>
	<stop  offset="0.8652" style="stop-color:#D4001D"/>
	<stop  offset="0.9944" style="stop-color:#ED1C24"/>
</linearGradient>
<path style="fill:url(#SVGID_00000109708580608489150470000016827648046868890288_);" d="M289.18,316.45h-52.9
	c-1.53,0-2.77,1.24-2.77,2.77v45.99l-19.55,9.4c-0.68,0.33-1.11,1.01-1.11,1.77v44.94c0,0.73,0.41,1.4,1.06,1.74l19.6,10.17v40.67
	c0,1.53,1.24,2.77,2.77,2.77h52.9c1.53,0,2.77-1.24,2.77-2.77V319.22C291.95,317.69,290.71,316.45,289.18,316.45z"/>
<linearGradient id="SVGID_00000073002248655173346060000001697058765996843700_" gradientUnits="userSpaceOnUse" x1="993.6761" y1="396.5596" x2="1052.1201" y2="396.5596">
	<stop  offset="8.417908e-07" style="stop-color:#FF7F83"/>
	<stop  offset="0.0927" style="stop-color:#FF767B"/>
	<stop  offset="0.2469" style="stop-color:#FF5C65"/>
	<stop  offset="0.4423" style="stop-color:#FF3342"/>
	<stop  offset="0.5674" style="stop-color:#FF1528"/>
	<stop  offset="0.8652" style="stop-color:#D4001D"/>
	<stop  offset="1" style="stop-color:#ED1C24"/>
</linearGradient>
<path style="fill:url(#SVGID_00000073002248655173346060000001697058765996843700_);" d="M996.45,271.35
	c-1.53,0-2.77,1.24-2.77,2.77v244.87c0,1.53,1.24,2.77,2.77,2.77h52.9c1.53,0,2.77-1.24,2.77-2.77V274.13
	c0-1.53-1.24-2.77-2.77-2.77H996.45z"/>
<linearGradient id="SVGID_00000121968580654234549240000009406462221145346184_" gradientUnits="userSpaceOnUse" x1="1063.71" y1="397.3155" x2="1122.1559" y2="397.3155">
	<stop  offset="8.417908e-07" style="stop-color:#FF7F83"/>
	<stop  offset="0.0927" style="stop-color:#FF767B"/>
	<stop  offset="0.2469" style="stop-color:#FF5C65"/>
	<stop  offset="0.4423" style="stop-color:#FF3342"/>
	<stop  offset="0.5674" style="stop-color:#FF1528"/>
	<stop  offset="0.8652" style="stop-color:#D4001D"/>
	<stop  offset="1" style="stop-color:#ED1C24"/>
</linearGradient>
<path style="fill:url(#SVGID_00000121968580654234549240000009406462221145346184_);" d="M1119.38,290.5h-52.9
	c-1.53,0-2.77,1.24-2.77,2.77v208.09c0,1.53,1.24,2.77,2.77,2.77h52.9c1.53,0,2.77-1.24,2.77-2.77V293.27
	C1122.16,291.74,1120.91,290.5,1119.38,290.5z"/>
<linearGradient id="SVGID_00000098204256733990537510000012175512187103173565_" gradientUnits="userSpaceOnUse" x1="1133.7438" y1="394.2923" x2="1212.8466" y2="394.2923">
	<stop  offset="8.417908e-07" style="stop-color:#FF7F83"/>
	<stop  offset="0.0927" style="stop-color:#FF767B"/>
	<stop  offset="0.2469" style="stop-color:#FF5C65"/>
	<stop  offset="0.4423" style="stop-color:#FF3342"/>
	<stop  offset="0.5674" style="stop-color:#FF1528"/>
	<stop  offset="0.8652" style="stop-color:#D4001D"/>
	<stop  offset="1" style="stop-color:#ED1C24"/>
</linearGradient>
<path style="fill:url(#SVGID_00000098204256733990537510000012175512187103173565_);" d="M1211.74,372.35l-19.55-9.4v-45.99
	c0-1.53-1.24-2.77-2.77-2.77h-52.9c-1.53,0-2.77,1.24-2.77,2.77v154.68c0,1.53,1.24,2.77,2.77,2.77h52.9c1.53,0,2.77-1.24,2.77-2.77
	v-40.67l19.6-10.17c0.65-0.34,1.06-1.01,1.06-1.74v-44.94C1212.85,373.36,1212.41,372.67,1211.74,372.35z"/>
<g>
	
		<linearGradient id="SVGID_00000024681739953994878040000011667383445358897596_" gradientUnits="userSpaceOnUse" x1="443.6066" y1="397.4333" x2="982.0889" y2="397.4333">
		<stop  offset="8.417908e-07" style="stop-color:#FF7F83"/>
		<stop  offset="0.0927" style="stop-color:#FF767B"/>
		<stop  offset="0.2469" style="stop-color:#FF5C65"/>
		<stop  offset="0.4423" style="stop-color:#FF3342"/>
		<stop  offset="0.5674" style="stop-color:#FF1528"/>
		<stop  offset="0.8652" style="stop-color:#D4001D"/>
		<stop  offset="1" style="stop-color:#ED1C24"/>
	</linearGradient>
	<path style="fill:url(#SVGID_00000024681739953994878040000011667383445358897596_);" d="M979.44,371.36h-50.13V206.68
		l-45.68-15.81l-147.48-51.04v50.12l147.48,51.04v190.83c0,96.48-76.31,174.7-170.44,174.7s-171.88-78.21-171.88-174.7V240.99
		l147.48-51.04v-50.12l-147.48,51.04l-45.68,15.81v166.95h-49.37c-1.46,0-2.65,1.19-2.65,2.65v42.07c0,1.46,1.19,2.65,2.65,2.65
		h49.37v10.83c0,123.28,97.08,223.21,216.84,223.21c119.76,0,216.84-99.94,216.84-223.21v-13.09h50.13c1.46,0,2.65-1.19,2.65-2.65
		v-42.07C982.09,372.55,980.9,371.36,979.44,371.36z"/>
	
		<linearGradient id="SVGID_00000036972616217051437850000014016839849270081703_" gradientUnits="userSpaceOnUse" x1="736.1487" y1="392.058" x2="837.1072" y2="392.058">
		<stop  offset="2.877006e-07" style="stop-color:#FF7F83"/>
		<stop  offset="0.0927" style="stop-color:#FF767B"/>
		<stop  offset="0.2469" style="stop-color:#FF5C65"/>
		<stop  offset="0.4423" style="stop-color:#FF3342"/>
		<stop  offset="0.5674" style="stop-color:#FF1528"/>
		<stop  offset="0.8652" style="stop-color:#D4001D"/>
		<stop  offset="1" style="stop-color:#ED1C24"/>
	</linearGradient>
	<path style="fill:url(#SVGID_00000036972616217051437850000014016839849270081703_);" d="M837,423.59l0.11,0.04v-2.64v-47.47
		v-49.33V275.6v-1.53l-100.96-34.94v50.12l55.28,19.13v49.33l-55.28-19.13v50.12l55.28,19.13v13.17h-0.02
		c0,35.34-23.23,65.25-55.25,75.31v48.68C793.41,534.02,835.8,484.05,837,423.59z"/>
	
		<linearGradient id="SVGID_00000147200613194686876420000002243214964184350336_" gradientUnits="userSpaceOnUse" x1="587.8311" y1="392.058" x2="688.7895" y2="392.058">
		<stop  offset="2.877006e-07" style="stop-color:#FF7F83"/>
		<stop  offset="0.0927" style="stop-color:#FF767B"/>
		<stop  offset="0.2469" style="stop-color:#FF5C65"/>
		<stop  offset="0.4423" style="stop-color:#FF3342"/>
		<stop  offset="0.5674" style="stop-color:#FF1528"/>
		<stop  offset="0.8652" style="stop-color:#D4001D"/>
		<stop  offset="1" style="stop-color:#ED1C24"/>
	</linearGradient>
	<path style="fill:url(#SVGID_00000147200613194686876420000002243214964184350336_);" d="M688.79,388.7v-50.12v-49.33v-48.26v-1.86
		l-100.96,34.94v50.12l55.28-19.13v49.33l-55.28,19.13v7.59v42.53l0.11-0.01c1.21,60.44,43.6,110.4,100.84,121.35V496.3
		c-32.02-10.06-55.25-39.97-55.25-75.31l0.06-13.19L688.79,388.7z"/>
</g>
</svg>
