<svg id="Layer_1" data-name="Layer 1" xmlns="http://www.w3.org/2000/svg" viewBox="0 0 250 300"><defs><style>.cls-1{fill:red;}.cls-2{fill:#171717;}.cls-3{fill:#fff;}</style></defs><rect class="cls-1" width="250" height="300"/><polygon class="cls-2" points="0 220.27 250 133.8 250 99.49 0 185.96 0 220.27"/><polygon class="cls-2" points="0 246.91 0 300 250 300 250 160.44 0 246.91"/><polygon class="cls-2" points="250 72.86 250 0 0 0 0 159.33 250 72.86"/><path id="path4512" class="cls-3" d="M120.51,83.69c-10.19,0-19.43.36-31.74,1-11.34.63-15.1,1-16.8,1.54-5.36,1.79-8.34,6-8.88,12.69-.46,5.75,1.54,59.81,2.49,67,1.62,12.29,6.06,20,15,25.9,4.52,3,15.57,9.13,39.38,21.82,2.7,1.44,4.94,2.63,5,2.64s20.91-11,28.65-15.27c14.73-8.08,18.52-10.55,22.12-14.41,6.33-6.76,8.65-14.18,9.5-30.34,1-18.27,2-54,1.72-57.54-.65-7.32-4.54-11.9-11-12.93-5.19-.84-27.55-1.88-44.78-2.08-3.76,0-7.26-.06-10.65,0Zm3.71,5.58c8.72,0,18,.12,21.83.36,1,.07,3.78.2,6.15.31,5.79.25,19.18,1,21.65,1.26,3.76.36,6,2,6.9,5.09.75,2.54.63,14.23-.45,43.26-.57,15.4-1.08,23.74-1.69,27.49-1.59,9.84-5.11,15.4-13.05,20.61-3.65,2.38-14.86,8.63-29,16.18-5.91,3.14-11,5.79-11.21,5.88-.48.17-1.52-.35-16.43-8.35-13.09-7-21.07-11.52-24.89-14.05-8.31-5.5-11.85-12-13-23.81-.79-7.9-2.18-45.2-2.18-58.37,0-8.2.23-9.5,2-11.56a7.19,7.19,0,0,1,2.26-1.73c1.89-.75,17-1.72,37.37-2.39,3.54-.11,8.57-.17,13.8-.18Zm26.09,16a23,23,0,0,0-5.31.41c-7.4,1.89-14,7.59-18,15.51l-1.08,2.11.85,3a15.78,15.78,0,0,0,1,3,11.63,11.63,0,0,0,1.34-2.27c3.9-7.59,9.49-13.64,15.09-16.34a19.73,19.73,0,0,1,23.76,5.44c1.53,1.84,1.65,1.7.39-.46a20.7,20.7,0,0,0-12.63-9.9,24.61,24.61,0,0,0-5.39-.56Zm-50.18,0a21.53,21.53,0,0,0-5.83.54,20.48,20.48,0,0,0-10.88,7.38c-2.46,3.24-3.71,5.91-1.43,3a22.09,22.09,0,0,1,10.16-6.7,23.67,23.67,0,0,1,8.68-.51c4.38.82,8,2.9,12.07,7a43.21,43.21,0,0,1,8,11,14.18,14.18,0,0,0,1.37,2.38,17.16,17.16,0,0,0,1-3l.87-3-.94-1.9c-2.48-5-7.28-10.41-11.4-12.87a32,32,0,0,0-5-2.29c-2.55-.87-3.15-1-6.65-1Zm-8.65,12.4a14.35,14.35,0,0,0-5.94,1.41c-4.65,2.18-7.59,7.37-8,14.15l-.19,2.87h1.27c1.14,0,1.29.09,1.46.84a49.53,49.53,0,0,0,5.1,14c2.2,3.7,5.42,6.62,7.3,6.62a2.1,2.1,0,0,0,1.24-.62c.83-.82.83-3.72,0-6.77-2.56-9.38-2.64-14.71-.26-16.71,1.69-1.42,4-.81,5.38,1.44.79,1.26.8,1.33.41,3.3-.87,4.32-.26,7.95,1.64,9.79a18.67,18.67,0,0,0,4,2.33c1.65.74,3.06,1.4,3.12,1.47s.82,3.08,1.68,6.71,1.76,7.14,2,7.81,1.51,3,2.77,5.16c2.27,3.87,2.31,4,3.24,8.59,1.08,5.37,1.49,6.16,3.58,6.83a17.54,17.54,0,0,0,8.1-.24c1.54-.65,2-1.66,3-6.79.85-4.33.88-4.41,3.31-8.56,2.71-4.65,2.79-4.87,4.9-13.52l1.48-6.08,3.05-1.37a19,19,0,0,0,4.07-2.34c1.9-1.85,2.51-5.48,1.64-9.8-.4-2-.4-2,.46-3.32,1.5-2.26,3.64-2.83,5.33-1.41,1.29,1.09,1.7,2.58,1.66,6,0,2.83-.54,5.66-1.92,10.73-.83,3.05-.84,5.95,0,6.77a2.15,2.15,0,0,0,1.24.62c1.89,0,5.13-3,7.38-6.76a52.69,52.69,0,0,0,5-13.9c.17-.75.32-.84,1.46-.84h1.26l-.19-2.84a20,20,0,0,0-2-8.08c-2.69-5.74-9-8.6-15.67-7-6,1.41-11.33,6.45-15.31,14.43a37.1,37.1,0,0,0-2.84,7.36c0,.22.67.9,1.5,1.49l1.5,1.08-.42,2.1-.77,3.82-.35,1.73-2.88,1.14a20.58,20.58,0,0,0-3,1.36,61.94,61.94,0,0,0-1,7.31,7.13,7.13,0,0,0,1.43-1.59,7.14,7.14,0,0,1,2.7-2.31,4.73,4.73,0,0,1,1.5-.51,10.78,10.78,0,0,1-.26,2.29l-.37,2.18-2.7,1.13a7.9,7.9,0,0,0-2.83,1.63c-.08.28-.52,3.24-1,6.6l-.84,6.09.64,2a5.33,5.33,0,0,1,.43,2.1c-.12.07-1.28.55-2.59,1.07l-2.37.94-2.37-.94c-1.3-.52-2.46-1-2.58-1.07a5.13,5.13,0,0,1,.43-2.1l.64-2-.85-6.09c-.46-3.36-.9-6.32-1-6.6a8,8,0,0,0-2.85-1.63l-2.7-1.14-.36-1.93c-.5-2.74-.54-2.67,1.06-2.08a6,6,0,0,1,2.82,2.29,6.87,6.87,0,0,0,1.52,1.65,56.64,56.64,0,0,0-1-7.3,19.6,19.6,0,0,0-3-1.35l-2.88-1.14-.53-2.65c-.3-1.46-.64-3.18-.77-3.82-.24-1.15-.21-1.2,1.26-2.26.83-.59,1.51-1.27,1.51-1.49a37.1,37.1,0,0,0-2.84-7.36c-4.82-9.65-11.9-15-19-14.9ZM147.69,137l.21,1.43a22.55,22.55,0,0,1,.1,3.72c-.13,2.59-.6,3.47-2.59,4.83a9.06,9.06,0,0,1-1.92,1c-.6.17-.69.12-.55-.36.09-.31.4-1.59.68-2.83a13.8,13.8,0,0,1,2.29-5Zm-72.13.41v3.66a59,59,0,0,0,3.35,19.57c2.28,5.89,6,9.65,10.56,10.54,4.84,1,9-.94,10.23-4.67.84-2.54.19-7-1.5-10.24-.42-.81-.44-.68-.29,1.93s.07,3-.53,4.22c-1,2.08-2.92,2.86-5.61,2.28-4.83-1-9.32-8.75-12.21-21-.48-2-1-4.27-1.08-5l-.21-1.3H75.56Zm96.19,0-.2,1.3a107,107,0,0,1-2.92,11.6,47.83,47.83,0,0,1-5.06,10.52c-2.18,2.91-5.38,4.5-7.94,3.93-2.82-.64-3.77-2.45-3.51-6.7.16-2.52.14-2.63-.29-1.8a19,19,0,0,0-1.83,6.51c-.37,4.28,1.4,7.1,5.18,8.28a11.79,11.79,0,0,0,11.11-2.9c4.89-4.53,8.17-15.41,8.17-27.12V137.4h-2.71Zm-69.28.21c.29,0,.78.78,1.62,2.11a17.22,17.22,0,0,1,2.37,5.45c.4,1.55.73,2.86.73,2.9,0,.43-2.17-.64-3.33-1.63C102.39,145.2,102,144,102,141,102,138.62,102.09,137.55,102.47,137.61Z"/></svg>