<svg id="Layer_1" data-name="Layer 1" xmlns="http://www.w3.org/2000/svg" viewBox="0 0 250 300"><defs><style>.cls-1{fill:red;}.cls-2{fill:#fff;}</style></defs><rect class="cls-1" width="250" height="300"/><path class="cls-2" d="M76.53,132.16a.39.39,0,0,0-.4.4v35.28a.39.39,0,0,0,.4.4h7.62a.39.39,0,0,0,.39-.4V132.56a.39.39,0,0,0-.39-.4Z"/><path class="cls-2" d="M74.46,165.3v-30a.4.4,0,0,0-.4-.4H66.44a.4.4,0,0,0-.4.4v30a.4.4,0,0,0,.4.4h7.62A.4.4,0,0,0,74.46,165.3Z"/><path class="cls-2" d="M64,138.33H56.35a.4.4,0,0,0-.4.4v6.63l-2.82,1.35A.31.31,0,0,0,53,147v6.47a.27.27,0,0,0,.16.25L56,155.16V161a.39.39,0,0,0,.4.4H64a.39.39,0,0,0,.4-.4V138.73A.4.4,0,0,0,64,138.33Z"/><path class="cls-2" d="M165.85,131.84a.4.4,0,0,0-.4.4v35.27a.4.4,0,0,0,.4.4h7.62a.4.4,0,0,0,.4-.4V132.24a.4.4,0,0,0-.4-.4Z"/><path class="cls-2" d="M183.56,134.6h-7.62a.39.39,0,0,0-.4.39v30a.4.4,0,0,0,.4.4h7.62a.4.4,0,0,0,.4-.4V135A.39.39,0,0,0,183.56,134.6Z"/><path class="cls-2" d="M196.87,146.39,194.05,145v-6.62a.4.4,0,0,0-.4-.4H186a.4.4,0,0,0-.4.4v22.28a.4.4,0,0,0,.4.4h7.62a.4.4,0,0,0,.4-.4v-5.86l2.82-1.46a.28.28,0,0,0,.16-.25v-6.48A.28.28,0,0,0,196.87,146.39Z"/><path class="cls-2" d="M163.4,146.24h-7.22V122.52l-6.58-2.28-21.24-7.35v7.22l21.24,7.35V155c0,13.9-11,25.17-24.55,25.17A25,25,0,0,1,100.29,155V127.46l21.24-7.35v-7.22l-21.24,7.35-6.58,2.28v24H86.6a.38.38,0,0,0-.38.38V153a.38.38,0,0,0,.38.38h7.11V155c0,17.76,14,32.16,31.24,32.16s31.23-14.4,31.23-32.16v-1.88h7.22a.38.38,0,0,0,.38-.38v-6.06A.39.39,0,0,0,163.4,146.24Z"/><path class="cls-2" d="M142.88,153.77h0V132.23l-14.54-5v7.22l8,2.75v7.11l-8-2.76v7.22l8,2.76v1.89h0a11.37,11.37,0,0,1-8,10.85v7A18,18,0,0,0,142.88,153.77Z"/><path class="cls-2" d="M121.53,148.74V127.2l-14.54,5v7.22l8-2.76v7.11l-8,2.76v7.21h0a18,18,0,0,0,14.52,17.48v-7a11.38,11.38,0,0,1-8-10.85v-1.9Z"/></svg>