<svg xmlns="http://www.w3.org/2000/svg" viewBox="0 0 95.47 65.58"><defs><style>.cls-1,.cls-2{fill:#1d1d1b;}.cls-1{stroke:#1d1d1b;stroke-miterlimit:10;}</style></defs><g id="Layer_2" data-name="Layer 2"><g id="Layer_1-2" data-name="Layer 1"><rect class="cls-1" x="9.93" y="17.08" width="10.95" height="10.95"/><rect class="cls-1" x="23.53" y="5.81" width="10.61" height="33.17"/><rect class="cls-1" x="36.8" y="0.5" width="10.61" height="43.78"/><rect class="cls-1" x="47.41" y="17.08" width="37.56" height="10.95"/><path class="cls-2" d="M.29,65.13C.2,63.78.11,62.7,0,61.89a9.62,9.62,0,0,0,1.9.66,7.05,7.05,0,0,0,1.46.18,3.05,3.05,0,0,0,1.32-.24.76.76,0,0,0,.49-.71.78.78,0,0,0,0-.31,1.26,1.26,0,0,0-.18-.34,2.7,2.7,0,0,0-.38-.4L2.77,59.17c-.42-.35-.71-.61-.88-.77a5.92,5.92,0,0,1-.78-.9,3,3,0,0,1-.41-.85,3.1,3.1,0,0,1-.13-.92,3.42,3.42,0,0,1,.2-1.14,3.72,3.72,0,0,1,.62-1,3.44,3.44,0,0,1,1.08-.83,4.5,4.5,0,0,1,1.45-.48,9.11,9.11,0,0,1,1.58-.13,18,18,0,0,1,3.5.37c0,.44,0,.84.07,1.2s.08,1,.18,1.92a8.17,8.17,0,0,0-1.6-.49A6.09,6.09,0,0,0,6.41,55a2.49,2.49,0,0,0-1.23.27.81.81,0,0,0-.49.69.94.94,0,0,0,.07.37,1.68,1.68,0,0,0,.29.42,4.73,4.73,0,0,0,.55.53c.23.2.59.48,1.07.86l.69.55a6.77,6.77,0,0,1,.65.6,5.39,5.39,0,0,1,.61.69,4.91,4.91,0,0,1,.4.63,2.59,2.59,0,0,1,.2.57,2.53,2.53,0,0,1,.07.63,3.49,3.49,0,0,1-.41,1.63,3.44,3.44,0,0,1-1.16,1.27,5,5,0,0,1-1.65.7,8.93,8.93,0,0,1-1.9.2A21.35,21.35,0,0,1,.29,65.13Z"/><path class="cls-2" d="M11.73,52.35c1,0,1.69,0,2.09,0s1.18,0,2,0l-.29,4c-.05.76-.1,1.48-.12,2.14s0,1.13,0,1.38a5.81,5.81,0,0,0,.11,1.21,1.83,1.83,0,0,0,.38.82,1.6,1.6,0,0,0,.76.51,3.21,3.21,0,0,0,1,.17,3,3,0,0,0,.86-.12,2,2,0,0,0,.56-.29,1.76,1.76,0,0,0,.38-.39,2.87,2.87,0,0,0,.35-.68,4.24,4.24,0,0,0,.23-1c.06-.41.13-1.36.23-2.83.08-1.25.14-2.4.19-3.44a10.36,10.36,0,0,1,.1-1.52h4.19l-.46,6.75c0,.13,0,.24,0,.32A13.47,13.47,0,0,1,24,62.21a3.7,3.7,0,0,1-.68,1.41A4.3,4.3,0,0,1,22,64.7a7.2,7.2,0,0,1-2.07.68,14.15,14.15,0,0,1-2.35.2,13.64,13.64,0,0,1-2.05-.15A8.24,8.24,0,0,1,13.85,65a5.63,5.63,0,0,1-1.27-.68,3.14,3.14,0,0,1-.76-.73,2.88,2.88,0,0,1-.42-.9,4.33,4.33,0,0,1-.17-1.27c0-.15,0-.38,0-.69s0-.74.08-1.32l.13-1.52c0-.4.06-1,.1-1.76Z"/><path class="cls-2" d="M26.33,65.33l.19-2.43.25-4.76.1-3.36c0-.36,0-.72,0-1.09s0-.71,0-1.34l2,0c.48,0,1.15,0,2,0s1.57,0,2.16,0a8,8,0,0,1,1.89.16,3.52,3.52,0,0,1,1.11.51,3.12,3.12,0,0,1,.81.81,3.33,3.33,0,0,1,.49,1.06,4.52,4.52,0,0,1,.16,1.21,4.44,4.44,0,0,1-.62,2.33A3.87,3.87,0,0,1,35.15,60a5.82,5.82,0,0,1-2.52.52,7.84,7.84,0,0,1-1.18-.11c-.05-.29-.15-.73-.29-1.3s-.25-1-.34-1.29a4.14,4.14,0,0,0,.87.09,2,2,0,0,0,1.43-.46,1.51,1.51,0,0,0,.47-1.13,1.45,1.45,0,0,0-.1-.57,1,1,0,0,0-.33-.42,1.15,1.15,0,0,0-.51-.21A3.87,3.87,0,0,0,32,55h-.72l-.8.06q-.12,1.83-.18,4.08c-.09,2.72-.13,4.36-.13,4.9v1.24l-1.89,0Z"/><path class="cls-2" d="M38.71,65.33c.16-1.64.27-3,.35-4.11s.14-2.56.22-4.39.11-3,.11-3.64v-.84c1.49,0,3.3,0,5.42,0,2,0,3.69,0,5.18,0l0,.32c0,.07,0,.35,0,.82l-.06,1c0,.23,0,.45,0,.68-1.22-.05-2.25-.08-3.08-.08H44.91c-.32,0-.82,0-1.5,0l-.11,2.18q1.13,0,2.61,0l2.84-.06c-.07.81-.13,1.77-.18,2.9-1.1,0-1.94,0-2.53,0q-1.3,0-2.94.06L43,62.57h1.09l2,0,2,0c.3,0,.78,0,1.47-.08-.08.94-.14,1.91-.19,2.91l-5.09,0H38.71Z"/><path class="cls-2" d="M51.53,65.33c.12-1.12.22-2.12.29-3s.13-1.93.18-3.11.09-2.42.11-3.73,0-2.35,0-3.13l1.92,0c.51,0,1.13,0,1.86,0s1.43,0,2.12,0,1.54,0,2.17.09a5.52,5.52,0,0,1,1.3.28,3.6,3.6,0,0,1,1,.51,3,3,0,0,1,.67.67,2.7,2.7,0,0,1,.41.87,3.69,3.69,0,0,1,.15,1.07A4.17,4.17,0,0,1,63.57,57a3.47,3.47,0,0,1-.51,1,3.25,3.25,0,0,1-.88.85,7.69,7.69,0,0,1-1.47.73l.49,1.21q.21.49.45,1l1.27,2.79c.06.12.16.36.31.71l-2.11,0-2.25,0-.55-1.83q-.16-.57-.27-.87c-.16-.45-.38-1.08-.68-1.89l-1-2.69a5.83,5.83,0,0,0,1,.09,3.62,3.62,0,0,0,1.26-.21,1.64,1.64,0,0,0,.85-.64,1.59,1.59,0,0,0,.29-.92,1.16,1.16,0,0,0-.22-.72,1.23,1.23,0,0,0-.68-.46A5.19,5.19,0,0,0,57.45,55h-.69l-.84,0c-.08,1.3-.15,2.89-.21,4.76s-.1,3.7-.12,5.5l-2.07,0Z"/><path class="cls-2" d="M65.23,65.33c.13-1.29.23-2.32.28-3.1.07-1.15.15-2.74.22-4.76s.1-3.37.1-4.07v-1c1.91,0,3.68,0,5.32,0s3.25,0,4.78,0c-.11,1.46-.16,2.42-.16,2.87l-.82,0H71.74l-1.89,0-.08,2.21,1.37,0h1.54l2,0c-.07,1.2-.11,2.14-.11,2.82-1,0-1.77,0-2.26,0-.84,0-1.75,0-2.74,0l-.1,3.42v1.69l-2,0Z"/><path class="cls-2" d="M77.18,65.33q.55-7.63.55-11.75V52.35c1.11,0,1.85,0,2.23,0l2,0c-.11,1.43-.21,2.78-.28,4-.09,1.78-.15,3.44-.19,5s0,2.86,0,3.95l-2,0Z"/><path class="cls-2" d="M86.69,65.33q.47-4.62.56-10.17l-4,.1,0-1c0-.57,0-1.18.06-1.86,1.8,0,3.9,0,6.29,0h5.87l-.06.94c0,.49,0,.91,0,1.23s0,.58,0,.74c-1.35-.07-2.47-.1-3.35-.1h-.66c-.1,1.12-.17,2.15-.22,3.1-.07,1.36-.13,2.68-.17,4s0,2.32,0,3.11l-2,0Z"/></g></g></svg>