<?xml version="1.0" encoding="utf-8"?>
<!-- Generator: Adobe Illustrator 16.0.0, SVG Export Plug-In . SVG Version: 6.00 Build 0)  -->
<!DOCTYPE svg PUBLIC "-//W3C//DTD SVG 1.1//EN" "http://www.w3.org/Graphics/SVG/1.1/DTD/svg11.dtd">
<svg version="1.1" id="Layer_1" xmlns="http://www.w3.org/2000/svg" xmlns:xlink="http://www.w3.org/1999/xlink" x="0px" y="0px"
	 width="1400px" height="980px" viewBox="0 0 1400 980" enable-background="new 0 0 1400 980" xml:space="preserve">
<g>
	<g>
		<g>
			<path d="M1032.112,327.786h-29.565c-2.441,0-4.421,1.98-4.421,4.421v104.996c0,2.442,1.979,4.421,4.421,4.421h29.565
				c2.439,0,4.42-1.979,4.42-4.421V332.207C1036.532,329.766,1034.552,327.786,1032.112,327.786z"/>
			<path d="M987.993,342.333h-22.009c-1.817,0-3.291,1.474-3.291,3.291v78.162c0,1.818,1.474,3.292,3.291,3.292h22.009
				c1.818,0,3.292-1.474,3.292-3.292v-78.162C991.285,343.807,989.812,342.333,987.993,342.333z"/>
			<path d="M1157.765,441.624h29.563c2.441,0,4.421-1.979,4.421-4.421V332.207c0-2.441-1.979-4.421-4.421-4.421h-29.563
				c-2.442,0-4.423,1.98-4.423,4.421v104.996C1153.342,439.645,1155.322,441.624,1157.765,441.624z"/>
			<path d="M1201.881,427.078h22.01c1.816,0,3.292-1.474,3.292-3.292v-78.163c0-1.817-1.476-3.291-3.292-3.291h-22.01
				c-1.818,0-3.29,1.474-3.29,3.291v78.163C1198.591,425.604,1200.063,427.078,1201.881,427.078z"/>
		</g>
		<rect x="1040.643" y="375.035" width="108.589" height="19.341"/>
	</g>
	<g>
		<g>
			<path d="M325.885,611.172h61.424c5.071,0,9.184-3.601,9.184-8.037V494.132c0-4.438-4.113-8.038-9.184-8.038h-61.424
				c-5.074,0-9.184,3.6-9.184,8.038v109.003C316.701,607.571,320.811,611.172,325.885,611.172z"/>
			<path d="M124.893,611.172h61.425c5.071,0,9.184-3.601,9.184-8.037V494.132c0-4.438-4.113-8.038-9.184-8.038h-61.425
				c-5.073,0-9.183,3.6-9.183,8.038v109.003C115.71,607.571,119.82,611.172,124.893,611.172z"/>
		</g>
		<path d="M256.102,525.76c-17.613,0-69.867,7.94-69.867,7.94v14.933v14.933c0,0,52.254,7.939,69.867,7.939
			s69.867-7.939,69.867-7.939v-14.933V533.7C325.968,533.7,273.715,525.76,256.102,525.76z"/>
	</g>
	<g>
		<rect x="276.881" y="138.555" width="28.428" height="129.958"/>
		<rect x="244.931" y="152.314" width="28.428" height="102.442"/>
		<rect x="212.981" y="167.748" width="28.428" height="71.575"/>
		<rect x="191.262" y="196.856" width="17.689" height="13.358"/>
		<rect x="528.963" y="138.555" width="28.429" height="129.958"/>
		<rect x="560.913" y="152.314" width="28.428" height="102.442"/>
		<rect x="592.862" y="167.748" width="28.428" height="71.575"/>
		<polygon points="430.252,196.856 430.252,196.856 310.034,196.856 310.034,210.215 430.252,210.215 430.252,210.213 
			524.237,210.215 524.237,196.856 		"/>
		<rect x="625.321" y="196.856" width="17.688" height="13.358"/>
	</g>
	<g>
		<rect x="520.922" y="303.124" width="32.136" height="146.908"/>
		<rect x="484.804" y="303.124" width="32.136" height="146.908"/>
		<polygon points="694.296,369.027 694.296,369.027 558.401,369.027 558.401,384.126 694.296,384.126 694.296,384.126 
			830.19,384.126 830.19,369.027 		"/>
		<polygon points="469.57,369.027 469.57,369.027 480.135,369.027 480.135,384.126 469.57,384.126 469.57,384.126 459.004,384.126 
			459.004,369.027 		"/>
		<rect x="835.535" y="303.124" width="32.135" height="146.908"/>
		<rect x="871.651" y="303.124" width="32.134" height="146.908"/>
		<polygon points="919.021,384.126 919.021,384.126 908.458,384.126 908.458,369.027 919.021,369.027 919.021,369.027 
			929.586,369.027 929.586,384.126 		"/>
	</g>
	<g>
		<rect x="920.959" y="721.75" width="24.21" height="110.679"/>
		<rect x="893.749" y="721.75" width="24.21" height="110.679"/>
		<polygon points="976.695,762.063 976.695,762.063 949.194,762.063 949.194,792.112 976.695,792.112 976.695,792.112 
			1079.077,792.112 1079.077,762.063 		"/>
		<polygon points="882.271,762.063 882.271,762.063 890.23,762.063 890.23,792.112 882.271,792.112 882.271,792.112 
			874.312,792.112 874.312,762.063 		"/>
		<rect x="1083.103" y="721.75" width="24.212" height="110.679"/>
		<rect x="1110.314" y="721.75" width="24.21" height="110.679"/>
		<polygon points="1146.002,792.112 1146.002,792.112 1138.045,792.112 1138.045,762.063 1146.002,762.063 1146.002,762.063 
			1153.962,762.063 1153.962,792.112 		"/>
	</g>
	<g>
		<path d="M1016.392,193.417c-8.006,0-10.251,8.888-11.737,14.768c-0.4,1.587-0.962,3.81-1.474,5.078h-10.524h-7.201h-10.524
			c-0.512-1.269-1.073-3.491-1.475-5.078c-1.485-5.88-3.73-14.768-11.735-14.768h-2.338h-28.794h-2.338
			c-8.007,0-10.251,8.888-11.737,14.768c-0.399,1.587-0.961,3.81-1.474,5.078h-10.524h-7.2h-10.524
			c-0.514-1.269-1.074-3.491-1.476-5.078c-1.485-5.88-3.73-14.768-11.737-14.768h-31.13v10.506h30.454
			c0.828,1.298,1.723,4.843,2.227,6.833c1.465,5.798,3.286,13.014,10.124,13.014h12.063h7.2h12.063
			c6.838,0,8.66-7.216,10.124-13.014c0.504-1.99,1.398-5.535,2.226-6.833h1.661h28.794h1.661c0.827,1.298,1.722,4.843,2.226,6.833
			c1.465,5.798,3.286,13.014,10.124,13.014h12.062h7.201h12.061c6.839,0,8.66-7.216,10.126-13.014
			c0.503-1.99,1.398-5.535,2.226-6.833h30.455v-10.506H1016.392z"/>
		<rect x="825.541" y="180.477" width="13.23" height="35.996"/>
		<rect x="808.321" y="135.24" width="13.23" height="126.47"/>
		<rect x="791.102" y="135.24" width="13.23" height="126.47"/>
		<rect x="773.883" y="180.477" width="13.23" height="35.996"/>
		<rect x="756.664" y="188.065" width="13.23" height="20.819"/>
		<rect x="746.059" y="193.417" width="6.615" height="10.118"/>
		<rect x="1102.687" y="180.477" width="13.23" height="35.996"/>
		<rect x="1119.905" y="188.065" width="13.23" height="20.819"/>
		<rect x="1137.124" y="193.417" width="6.615" height="10.118"/>
		<rect x="1051.026" y="180.477" width="13.23" height="35.996"/>
		<rect x="1068.247" y="135.24" width="13.23" height="126.47"/>
		<rect x="1085.466" y="135.24" width="13.23" height="126.47"/>
	</g>
	<path d="M360.197,319.934c-23.735,0-43.375,14.89-52.479,35.309c-2.954,6.629-7.208,9.849-10.942,10.442
		c-2.946,0.468-8.17-1.089-10.95-4.735c-4.455-5.842-11.63-9.426-19.551-9.426c-7.92,0-15.096,3.584-19.551,9.426
		c-2.78,3.646-8.004,5.203-10.95,4.735c-3.734-0.593-7.988-3.813-10.943-10.442c-9.103-20.419-28.743-35.309-52.478-35.309
		c-31.284,0-56.644,25.36-56.644,56.644c0,31.284,25.36,56.644,56.644,56.644c23.735,0,43.374-14.89,52.477-35.309
		c2.956-6.629,7.21-9.849,10.944-10.442c2.944-0.468,8.17,1.089,10.95,4.734c4.455,5.842,11.631,9.426,19.551,9.426
		c7.92,0,15.096-3.584,19.551-9.426c2.78-3.646,8.005-5.203,10.95-4.734c3.734,0.593,7.988,3.813,10.944,10.442
		c9.103,20.419,28.742,35.309,52.477,35.309c31.283,0,56.644-25.36,56.644-56.644C416.841,345.294,391.48,319.934,360.197,319.934z"
		/>
	<g>
		<g>
			<rect x="182.877" y="738.946" width="66.78" height="91.63"/>
			<rect x="383.746" y="738.946" width="66.78" height="91.63"/>
		</g>
		<rect x="258.028" y="765.255" width="117.346" height="37.964"/>
	</g>
	<path d="M775.823,653.745c-2.928-14.802-4.724-31.238-2.508-46.228c3.558-24.084,9.878-38.577,4.037-56.548
		c-12.533-38.554-88.186-33.365-106.157-33.365c-17.973,0-93.625-5.188-106.157,33.365c-5.841,17.971,0.479,32.464,4.037,56.548
		c2.214,14.989,0.419,31.426-2.508,46.23c-12.354,19.298-19.546,42.222-19.546,66.836c0,68.581,55.594,124.176,124.174,124.176
		c68.582,0,124.177-55.595,124.177-124.176C795.371,695.97,788.177,673.046,775.823,653.745z M613.153,610.812
		c-0.557-2.786-1.265-5.665-2.199-8.695c-5.299-17.168-13.798-47.93,4.673-49.62c11.791-1.081,48.376-1.611,55.568-1.693
		c7.191,0.082,43.777,0.612,55.566,1.693c18.473,1.69,9.974,32.452,4.675,49.62c-0.936,3.03-1.643,5.909-2.199,8.695
		c-17.326-9.18-37.071-14.399-58.043-14.399S630.478,601.632,613.153,610.812z"/>
	<path d="M1218.935,483.278c-28.993,0-53.562,18.886-62.113,45.021H949.915c-8.553-26.135-33.122-45.021-62.113-45.021
		c-36.095,0-65.355,29.26-65.355,65.355s29.261,65.355,65.355,65.355c28.991,0,53.561-18.887,62.113-45.021h206.906
		c8.552,26.135,33.12,45.021,62.113,45.021c36.095,0,65.355-29.261,65.355-65.355S1255.029,483.278,1218.935,483.278z"/>
</g>
</svg>
