<?xml version="1.0" encoding="utf-8"?>
<!-- Generator: Adobe Illustrator 25.2.1, SVG Export Plug-In . SVG Version: 6.00 Build 0)  -->
<svg version="1.1" id="Camada_1" xmlns="http://www.w3.org/2000/svg" xmlns:xlink="http://www.w3.org/1999/xlink" x="0px" y="0px"
	 viewBox="0 0 595.28 841.89" style="enable-background:new 0 0 595.28 841.89;" xml:space="preserve">
<style type="text/css">
	.st0{fill:#E52421;stroke:#E52421;stroke-miterlimit:10;}
	.st1{fill:#E52421;stroke:#282828;stroke-miterlimit:10;}
	.st2{fill:#FFFFFF;stroke:#282828;stroke-width:2;stroke-miterlimit:10;}
	.st3{fill:#FFFFFF;stroke:#282828;stroke-miterlimit:10;}
	.st4{font-family:'Impact';}
	.st5{font-size:22.3296px;}
	.st6{fill:#FFFFFF;stroke:#282828;stroke-width:0.5;stroke-miterlimit:10;}
	.st7{fill:none;}
	.st8{fill:#282828;}
	.st9{font-size:7.4432px;}
	.st10{font-size:5.5824px;}
	.st11{fill:none;stroke:#FAF8F7;stroke-miterlimit:10;}
	.st12{fill:#282828;stroke:#E52421;stroke-miterlimit:10;}
	.st13{fill:#FDFDFD;stroke:#E52421;stroke-miterlimit:10;}
	.st14{font-size:23.8436px;}
	.st15{fill:#FAF8F7;stroke:#E52421;stroke-width:0.2;stroke-miterlimit:10;}
	.st16{font-size:7.9479px;}
	.st17{font-size:5.9609px;}
	.st18{fill:none;stroke:#E52421;stroke-miterlimit:10;}
	.st19{fill:#F9F4F4;stroke:#E52421;stroke-width:0.4;stroke-miterlimit:10;}
	.st20{fill:#282828;stroke:#FDFDFD;stroke-miterlimit:10;}
	.st21{fill:#FFFFFF;}
	.st22{fill:#FDFDFD;}
	.st23{fill:none;stroke:#282828;stroke-miterlimit:10;}
	.st24{fill:#282828;stroke:#FFFFFF;stroke-width:0.5;stroke-miterlimit:10;}
	.st25{fill:#282828;stroke:#282828;stroke-miterlimit:10;}
	.st26{fill:#282828;stroke:#FFFFFF;stroke-width:2;stroke-miterlimit:10;}
	.st27{fill:#282828;stroke:#FFFFFF;stroke-miterlimit:10;}
	.st28{font-size:22.6145px;}
	.st29{fill:none;stroke:#FDFDFD;stroke-miterlimit:10;}
	.st30{fill:#FFFFFF;stroke:#E52421;stroke-miterlimit:10;}
	.st31{fill:#FFFFFF;stroke:#E52421;stroke-width:2;stroke-miterlimit:10;}
	.st32{fill:#E52421;stroke:#FDFDFD;stroke-miterlimit:10;}
	.st33{fill:#E52421;stroke:#FFFFFF;stroke-miterlimit:10;}
	.st34{fill:#E52421;stroke:#FFFFFF;stroke-width:0.5;stroke-miterlimit:10;}
	.st35{fill:#E52421;stroke:#FFFFFF;stroke-width:2;stroke-miterlimit:10;}
	.st36{fill:#FAFAFA;stroke:#E52421;stroke-miterlimit:10;}
	.st37{fill:#FFFFFF;stroke:#E52421;stroke-width:0.5;stroke-miterlimit:10;}
	.st38{fill:#E52421;}
	.st39{fill:#FFFFFF;stroke:#A39160;stroke-width:2;stroke-miterlimit:10;}
	.st40{fill:#282828;stroke:#A39160;stroke-miterlimit:10;}
	.st41{fill:#A39160;stroke:#282828;stroke-miterlimit:10;}
	.st42{fill:#282828;stroke:#F8F7F7;stroke-miterlimit:10;}
	.st43{fill:#A39160;}
	.st44{fill:#282828;stroke:#A39160;stroke-width:0.5;stroke-miterlimit:10;}
	.st45{fill:#282828;stroke:#FAFAFA;stroke-miterlimit:10;}
	.st46{fill:#282828;stroke:#A39160;stroke-width:2;stroke-miterlimit:10;}
	.st47{fill:none;stroke:#FCFCF8;stroke-miterlimit:10;}
</style>
<g>
	<rect x="53.93" y="207.67" class="st0" width="193.57" height="156.43"/>
	<rect x="109.25" y="238.3" class="st1" width="86.56" height="95.57"/>
	<polygon class="st2" points="204.02,258.8 202.91,317.36 151.63,345.67 101.48,315.42 102.6,256.87 153.87,228.56 	"/>
	<polygon class="st1" points="196.04,262.5 194.65,312.31 150.82,336.01 108.38,309.9 109.77,260.09 153.6,236.39 	"/>
	<rect x="104.72" y="264" class="st1" width="94.34" height="43.76"/>
	<text transform="matrix(1 0 0 1 109.025 294.0341)" class="st3 st4 st5">SUPER FIT</text>
	<g>
		<path class="st6" d="M160.95,255.37c-0.33,0-0.65,0-0.98,0c-0.01,0.37-0.01,0.74-0.02,1.11h-1.17v0.88h-1.17c0-2.17,0-4.33,0-6.5
			c0.42,0,0.83,0,1.25,0c0.01,0.27,0.03,0.55,0.04,0.82h1.11v1.05c0.31,0,0.62,0,0.94,0C160.95,253.62,160.95,254.49,160.95,255.37z
			"/>
		<polyline class="st6" points="161.06,254.56 161.23,254.56 161.23,253.62 161.06,253.62 		"/>
		<path class="st6" d="M144.28,252.85c0.34,0,0.68-0.01,1.02-0.01c-0.01-0.37-0.01-0.73-0.02-1.1h1.17v-0.88h1.17
			c0,2.17,0,4.33,0,6.5c-0.42,0-0.83,0-1.25,0c-0.01-0.27-0.03-0.55-0.04-0.82h-1.11v-1.05c-0.31,0-0.62,0-0.94,0
			C144.28,254.61,144.28,253.73,144.28,252.85z"/>
		<line class="st6" x1="157.61" y1="254.61" x2="147.62" y2="254.61"/>
		<line class="st6" x1="157.61" y1="253.67" x2="147.62" y2="253.67"/>
	</g>
	
		<rect x="142.18" y="310.27" transform="matrix(0.2761 -0.9611 0.9611 0.2761 -192.4759 382.2981)" class="st7" width="30.73" height="17.31"/>
	<text transform="matrix(1 0 0 1 150.7418 316.5839)" class="st8 st4 st9">x</text>
	<text transform="matrix(1 0 0 1 142.506 324.0907)" class="st8 st4 st10">EST. 2021</text>
	<polyline class="st11" points="111.54,248.21 111.54,240.73 124.78,240.73 	"/>
	<polyline class="st11" points="193.51,324.31 193.51,331.79 180.27,331.79 	"/>
	<line class="st11" x1="179.03" y1="240.87" x2="193.03" y2="249.39"/>
	<line class="st11" x1="111.22" y1="324.09" x2="125.38" y2="332.34"/>
</g>
<g>
	<rect x="102.31" y="68.7" class="st3" width="92.43" height="102.05"/>
	<polygon class="st2" points="203.52,90.6 202.32,153.12 147.58,183.35 94.02,151.06 95.22,88.53 149.96,58.3 	"/>
	<polygon class="st12" points="194.99,94.55 193.51,147.73 146.7,173.04 101.38,145.16 102.87,91.97 149.68,66.67 	"/>
	<rect x="97.48" y="96.15" class="st12" width="100.73" height="46.73"/>
	<text transform="matrix(1 0 0 1 102.0782 128.2181)" class="st13 st4 st14">SUPER FIT</text>
	<g>
		
			<rect x="136.96" y="146.26" transform="matrix(0.2761 -0.9611 0.9611 0.2761 -38.43 259.9808)" class="st7" width="32.82" height="18.49"/>
		<text transform="matrix(1 0 0 1 146.1021 153.0034)" class="st15 st4 st16">x</text>
		<text transform="matrix(1 0 0 1 137.8292 160.3128)" class="st15 st4 st17">EST. 2021</text>
	</g>
	<g>
		<polyline class="st18" points="104.77,79.29 104.77,71.3 118.9,71.3 		"/>
		<polyline class="st18" points="192.29,160.55 192.29,168.54 178.15,168.54 		"/>
		<line class="st18" x1="176.83" y1="71.45" x2="191.78" y2="80.54"/>
		<line class="st18" x1="104.43" y1="160.31" x2="119.55" y2="169.12"/>
	</g>
	<g>
		<path class="st19" d="M158.36,87.52c-0.35,0-0.7,0-1.04,0c-0.01,0.39-0.01,0.79-0.02,1.18h-1.25v0.94h-1.25c0-2.31,0-4.63,0-6.94
			c0.44,0,0.89,0,1.33,0c0.01,0.29,0.03,0.58,0.04,0.88h1.19v1.13c0.33,0,0.67,0,1,0C158.36,85.64,158.36,86.58,158.36,87.52z"/>
		<polyline class="st19" points="158.49,86.65 158.66,86.65 158.66,85.64 158.49,85.64 		"/>
		<path class="st19" d="M140.57,84.83c0.36,0,0.72-0.01,1.08-0.01c-0.01-0.39-0.01-0.78-0.02-1.17h1.25V82.7h1.25
			c0,2.31,0,4.63,0,6.94c-0.44,0-0.89,0-1.33,0c-0.01-0.29-0.03-0.58-0.04-0.88h-1.19v-1.13c-0.33,0-0.67,0-1,0
			C140.57,86.7,140.57,85.76,140.57,84.83z"/>
		<line class="st19" x1="154.8" y1="86.7" x2="144.13" y2="86.7"/>
		<line class="st19" x1="154.8" y1="85.7" x2="144.13" y2="85.7"/>
	</g>
</g>
<g>
	<rect x="389.7" y="67.47" class="st3" width="92.43" height="102.05"/>
	<polygon class="st2" points="490.91,89.37 489.71,151.9 434.96,182.13 381.41,149.83 382.6,87.3 437.35,57.07 	"/>
	<polygon class="st20" points="482.38,93.32 480.89,146.51 434.09,171.81 388.77,143.93 390.26,90.74 437.06,65.44 	"/>
	<rect x="384.87" y="94.92" class="st20" width="100.73" height="46.73"/>
	<text transform="matrix(1 0 0 1 389.4651 126.9891)" class="st3 st4 st14">SUPER FIT</text>
	
		<rect x="424.35" y="145.03" transform="matrix(0.2761 -0.9611 0.9611 0.2761 170.7915 535.3073)" class="st7" width="32.82" height="18.49"/>
	<text transform="matrix(1 0 0 1 433.489 151.7745)" class="st21 st4 st16">x</text>
	<text transform="matrix(1 0 0 1 425.2161 159.0838)" class="st22 st4 st17">EST. 2021</text>
	<polyline class="st23" points="392.15,78.06 392.15,70.07 406.29,70.07 	"/>
	<polyline class="st23" points="479.67,159.32 479.67,167.31 465.54,167.31 	"/>
	<line class="st23" x1="464.22" y1="70.22" x2="479.17" y2="79.31"/>
	<line class="st23" x1="391.81" y1="159.08" x2="406.93" y2="167.89"/>
	<g>
		<path class="st24" d="M445.75,86.29c-0.35,0-0.7,0-1.04,0c-0.01,0.39-0.01,0.79-0.02,1.18h-1.25v0.94h-1.25c0-2.31,0-4.63,0-6.94
			c0.44,0,0.89,0,1.33,0c0.01,0.29,0.03,0.58,0.04,0.88h1.19v1.13c0.33,0,0.67,0,1,0C445.75,84.41,445.75,85.35,445.75,86.29z"/>
		<polyline class="st24" points="445.87,85.42 446.05,85.42 446.05,84.41 445.87,84.41 		"/>
		<path class="st24" d="M427.95,83.6c0.36,0,0.72-0.01,1.08-0.01c-0.01-0.39-0.01-0.78-0.02-1.17h1.25v-0.94h1.25
			c0,2.31,0,4.63,0,6.94c-0.44,0-0.89,0-1.33,0c-0.01-0.29-0.03-0.58-0.04-0.88h-1.19v-1.13c-0.33,0-0.67,0-1,0
			C427.95,85.47,427.95,84.54,427.95,83.6z"/>
		<line class="st24" x1="442.19" y1="85.47" x2="431.52" y2="85.47"/>
		<line class="st24" x1="442.19" y1="84.47" x2="431.52" y2="84.47"/>
	</g>
</g>
<g>
	<rect x="340.22" y="207.67" class="st25" width="193.57" height="156.43"/>
	<rect x="395.53" y="238.3" class="st20" width="86.56" height="95.57"/>
	<polygon class="st26" points="490.31,258.8 489.19,317.36 437.92,345.67 387.77,315.42 388.89,256.87 440.16,228.56 	"/>
	<polygon class="st3" points="482.33,262.5 480.94,312.31 437.1,336.01 394.66,309.9 396.05,260.09 439.89,236.39 	"/>
	<rect x="391.01" y="264" class="st3" width="94.34" height="43.76"/>
	<text transform="matrix(0.9989 0 0 1 395.3112 294.2896)" class="st27 st4 st28">SUPER FIT</text>
	<g>
		<path class="st6" d="M447.23,255.37c-0.33,0-0.65,0-0.98,0c-0.01,0.37-0.01,0.74-0.02,1.11h-1.17v0.88h-1.17c0-2.17,0-4.33,0-6.5
			c0.42,0,0.83,0,1.25,0c0.01,0.27,0.03,0.55,0.04,0.82h1.11v1.05c0.31,0,0.62,0,0.94,0C447.23,253.62,447.23,254.49,447.23,255.37z
			"/>
		<polyline class="st6" points="447.35,254.56 447.51,254.56 447.51,253.62 447.35,253.62 		"/>
		<path class="st6" d="M430.57,252.85c0.34,0,0.68-0.01,1.02-0.01c-0.01-0.37-0.01-0.73-0.02-1.1h1.17v-0.88h1.17
			c0,2.17,0,4.33,0,6.5c-0.42,0-0.83,0-1.25,0c-0.01-0.27-0.03-0.55-0.04-0.82h-1.11v-1.05c-0.31,0-0.62,0-0.94,0
			C430.57,254.61,430.57,253.73,430.57,252.85z"/>
		<line class="st6" x1="443.9" y1="254.61" x2="433.9" y2="254.61"/>
		<line class="st6" x1="443.9" y1="253.67" x2="433.9" y2="253.67"/>
	</g>
	
		<rect x="428.47" y="310.27" transform="matrix(0.2761 -0.9611 0.9611 0.2761 14.768 657.4568)" class="st7" width="30.73" height="17.31"/>
	<text transform="matrix(1 0 0 1 437.0285 316.5839)" class="st8 st4 st9">x</text>
	<text transform="matrix(1 0 0 1 428.7927 324.0907)" class="st8 st4 st10">EST. 2021</text>
	<polyline class="st29" points="397.83,248.21 397.83,240.73 411.07,240.73 	"/>
	<polyline class="st29" points="479.79,324.31 479.79,331.79 466.56,331.79 	"/>
	<line class="st29" x1="465.32" y1="240.87" x2="479.32" y2="249.39"/>
	<line class="st29" x1="397.51" y1="324.09" x2="411.67" y2="332.34"/>
</g>
<rect x="106.73" y="467.94" class="st30" width="92.43" height="102.05"/>
<polygon class="st31" points="207.93,489.84 206.74,552.37 151.99,582.6 98.44,550.3 99.63,487.77 154.38,457.54 "/>
<polygon class="st32" points="199.41,493.79 197.92,546.98 151.12,572.28 105.8,544.4 107.29,491.21 154.09,465.91 "/>
<rect x="101.9" y="495.39" class="st33" width="100.73" height="46.73"/>
<text transform="matrix(1 0 0 1 106.4948 527.4594)" class="st30 st4 st14">SUPER FIT</text>
<rect x="141.38" y="545.5" transform="matrix(0.2761 -0.9611 0.9611 0.2761 -418.9557 553.2377)" class="st7" width="32.82" height="18.49"/>
<text transform="matrix(1 0 0 1 150.5187 552.2448)" class="st21 st4 st16">x</text>
<text transform="matrix(1 0 0 1 142.2457 559.5541)" class="st22 st4 st17">EST. 2021</text>
<polyline class="st18" points="109.18,478.53 109.18,470.54 123.32,470.54 "/>
<polyline class="st18" points="196.7,559.79 196.7,567.78 182.57,567.78 "/>
<line class="st18" x1="181.25" y1="470.69" x2="196.2" y2="479.78"/>
<line class="st18" x1="108.84" y1="559.55" x2="123.96" y2="568.36"/>
<g>
	<path class="st34" d="M162.78,486.76c-0.35,0-0.7,0-1.04,0c-0.01,0.39-0.01,0.79-0.02,1.18h-1.25v0.94h-1.25c0-2.31,0-4.63,0-6.94
		c0.44,0,0.89,0,1.33,0c0.01,0.29,0.03,0.58,0.04,0.88h1.19v1.13c0.33,0,0.67,0,1,0C162.78,484.88,162.78,485.82,162.78,486.76z"/>
	<polyline class="st34" points="162.9,485.89 163.08,485.89 163.08,484.89 162.9,484.89 	"/>
	<path class="st34" d="M144.98,484.07c0.36,0,0.72-0.01,1.08-0.01c-0.01-0.39-0.01-0.78-0.02-1.17h1.25v-0.94h1.25
		c0,2.31,0,4.63,0,6.94c-0.44,0-0.89,0-1.33,0c-0.01-0.29-0.03-0.58-0.04-0.88h-1.19v-1.13c-0.33,0-0.67,0-1,0
		C144.98,485.94,144.98,485.01,144.98,484.07z"/>
	<line class="st34" x1="159.22" y1="485.94" x2="148.55" y2="485.94"/>
	<line class="st34" x1="159.22" y1="484.94" x2="148.55" y2="484.94"/>
</g>
<rect x="57.25" y="608.14" class="st0" width="193.57" height="156.43"/>
<rect x="112.56" y="638.77" class="st32" width="86.56" height="95.57"/>
<polygon class="st35" points="207.34,659.27 206.22,717.83 154.95,746.14 104.8,715.89 105.92,657.34 157.19,629.03 "/>
<polygon class="st30" points="199.36,662.97 197.96,712.78 154.13,736.48 111.69,710.37 113.08,660.56 156.92,636.86 "/>
<rect x="108.04" y="664.47" class="st36" width="94.34" height="43.76"/>
<text transform="matrix(0.9989 0 0 1 112.3408 694.7599)" class="st33 st4 st28">SUPER FIT</text>
<g>
	<path class="st37" d="M164.26,655.84c-0.33,0-0.65,0-0.98,0c-0.01,0.37-0.01,0.74-0.02,1.11h-1.17v0.88h-1.17c0-2.17,0-4.33,0-6.5
		c0.42,0,0.83,0,1.25,0c0.01,0.27,0.03,0.55,0.04,0.82h1.11v1.05c0.31,0,0.62,0,0.94,0C164.26,654.09,164.26,654.96,164.26,655.84z"
		/>
	<polyline class="st37" points="164.38,655.03 164.54,655.03 164.54,654.09 164.38,654.09 	"/>
	<path class="st37" d="M147.59,653.32c0.34,0,0.68-0.01,1.02-0.01c-0.01-0.37-0.01-0.73-0.02-1.1h1.17v-0.88h1.17
		c0,2.17,0,4.33,0,6.5c-0.42,0-0.83,0-1.25,0c-0.01-0.27-0.03-0.55-0.04-0.82h-1.11v-1.05c-0.31,0-0.62,0-0.94,0
		C147.59,655.08,147.59,654.2,147.59,653.32z"/>
	<line class="st37" x1="160.92" y1="655.08" x2="150.93" y2="655.08"/>
	<line class="st37" x1="160.92" y1="654.14" x2="150.93" y2="654.14"/>
</g>
<rect x="145.5" y="710.74" transform="matrix(0.2761 -0.9611 0.9611 0.2761 -574.9791 675.3873)" class="st7" width="30.73" height="17.31"/>
<text transform="matrix(1 0 0 1 154.0582 717.0542)" class="st38 st4 st9">x</text>
<text transform="matrix(1 0 0 1 145.8223 724.561)" class="st38 st4 st10">EST. 2021</text>
<polyline class="st29" points="114.86,648.68 114.86,641.2 128.1,641.2 "/>
<polyline class="st29" points="196.82,724.78 196.82,732.26 183.59,732.26 "/>
<line class="st29" x1="182.35" y1="641.34" x2="196.35" y2="649.86"/>
<line class="st29" x1="114.54" y1="724.56" x2="128.7" y2="732.81"/>
<g>
	<rect x="390.88" y="465.03" class="st3" width="92.43" height="102.05"/>
	<polygon class="st39" points="492.08,486.92 490.89,549.45 436.14,579.68 382.59,547.38 383.78,484.86 438.53,454.63 	"/>
	<polygon class="st40" points="483.56,490.87 482.07,544.06 435.27,569.37 389.95,541.48 391.43,488.3 438.24,462.99 	"/>
	<rect x="386.05" y="492.47" class="st41" width="100.73" height="46.73"/>
	<text transform="matrix(1 0 0 1 390.6414 524.5439)" class="st42 st4 st14">SUPER FIT</text>
	
		<rect x="425.53" y="542.59" transform="matrix(0.2761 -0.9611 0.9611 0.2761 -210.4588 824.2291)" class="st7" width="32.82" height="18.49"/>
	<text transform="matrix(1 0 0 1 434.6653 549.3293)" class="st43 st4 st16">x</text>
	<text transform="matrix(1 0 0 1 426.3924 556.6387)" class="st43 st4 st17">EST. 2021</text>
	<polyline class="st23" points="393.33,475.62 393.33,467.62 407.46,467.62 	"/>
	<polyline class="st23" points="480.85,556.87 480.85,564.86 466.72,564.86 	"/>
	<line class="st23" x1="465.39" y1="467.78" x2="480.34" y2="476.87"/>
	<line class="st23" x1="392.99" y1="556.64" x2="408.11" y2="565.45"/>
	<g>
		<path class="st44" d="M446.93,483.84c-0.35,0-0.7,0-1.04,0c-0.01,0.39-0.01,0.79-0.02,1.18h-1.25v0.94h-1.25c0-2.31,0-4.63,0-6.94
			c0.44,0,0.89,0,1.33,0c0.01,0.29,0.03,0.58,0.04,0.88h1.19v1.13c0.33,0,0.67,0,1,0C446.93,481.97,446.93,482.9,446.93,483.84z"/>
		<polyline class="st44" points="447.05,482.97 447.23,482.97 447.23,481.97 447.05,481.97 		"/>
		<path class="st44" d="M429.13,481.15c0.36,0,0.72-0.01,1.08-0.01c-0.01-0.39-0.01-0.78-0.02-1.17h1.25v-0.94h1.25
			c0,2.31,0,4.63,0,6.94c-0.44,0-0.89,0-1.33,0c-0.01-0.29-0.03-0.58-0.04-0.88h-1.19v-1.13c-0.33,0-0.67,0-1,0
			C429.13,483.03,429.13,482.09,429.13,481.15z"/>
		<line class="st44" x1="443.36" y1="483.02" x2="432.69" y2="483.02"/>
		<line class="st44" x1="443.36" y1="482.02" x2="432.69" y2="482.02"/>
	</g>
</g>
<rect x="341.39" y="605.22" class="st40" width="193.57" height="156.43"/>
<rect x="396.71" y="635.85" class="st45" width="86.56" height="95.57"/>
<polygon class="st46" points="491.49,656.36 490.37,714.91 439.1,743.23 388.94,712.98 390.06,654.42 441.33,626.11 "/>
<polygon class="st20" points="483.5,660.06 482.11,709.87 438.28,733.57 395.84,707.45 397.23,657.64 441.06,633.95 "/>
<rect x="392.19" y="661.56" class="st41" width="94.34" height="43.76"/>
<text transform="matrix(0.9989 0 0 1 396.4875 691.8444)" class="st45 st4 st28">SUPER FIT</text>
<g>
	<path class="st44" d="M448.41,652.93c-0.33,0-0.65,0-0.98,0c-0.01,0.37-0.01,0.74-0.02,1.11h-1.17v0.88h-1.17c0-2.17,0-4.33,0-6.5
		c0.42,0,0.83,0,1.25,0c0.01,0.27,0.03,0.55,0.04,0.82h1.11v1.05c0.31,0,0.62,0,0.94,0C448.41,651.17,448.41,652.05,448.41,652.93z"
		/>
	<polyline class="st44" points="448.53,652.11 448.69,652.11 448.69,651.17 448.53,651.17 	"/>
	<path class="st44" d="M431.74,650.41c0.34,0,0.68-0.01,1.02-0.01c-0.01-0.37-0.01-0.73-0.02-1.1h1.17v-0.88h1.17
		c0,2.17,0,4.33,0,6.5c-0.42,0-0.83,0-1.25,0c-0.01-0.27-0.03-0.55-0.04-0.82h-1.11v-1.05c-0.31,0-0.62,0-0.94,0
		C431.74,652.16,431.74,651.29,431.74,650.41z"/>
	<line class="st44" x1="445.07" y1="652.16" x2="435.08" y2="652.16"/>
	<line class="st44" x1="445.07" y1="651.22" x2="435.08" y2="651.22"/>
</g>
<rect x="429.65" y="707.82" transform="matrix(0.2761 -0.9611 0.9611 0.2761 -366.4823 946.3787)" class="st7" width="30.73" height="17.31"/>
<text transform="matrix(1 0 0 1 438.2048 714.1388)" class="st43 st4 st9">x</text>
<text transform="matrix(1 0 0 1 429.969 721.6456)" class="st43 st4 st10">EST. 2021</text>
<polyline class="st47" points="399.01,645.77 399.01,638.28 412.24,638.28 "/>
<polyline class="st47" points="480.97,721.86 480.97,729.35 467.73,729.35 "/>
<line class="st47" x1="466.49" y1="638.43" x2="480.49" y2="646.94"/>
<line class="st47" x1="398.69" y1="721.64" x2="412.85" y2="729.89"/>
</svg>
