<?xml version="1.0" encoding="utf-8"?>
<!-- Generator: Adobe Illustrator 26.0.1, SVG Export Plug-In . SVG Version: 6.00 Build 0)  -->
<svg version="1.1" id="Camada_1" xmlns="http://www.w3.org/2000/svg" xmlns:xlink="http://www.w3.org/1999/xlink" x="0px" y="0px"
	 viewBox="0 0 1366 768" style="enable-background:new 0 0 1366 768;" xml:space="preserve">
<style type="text/css">
	.st0{fill:#1A1A1A;}
	.st1{font-family:'TwCenMT-CondensedBold';}
	.st2{font-size:58.2455px;}
	.st3{fill:#C41627;}
	.st4{font-size:58.2451px;}
	.st5{fill:#FFFFFF;}
	.st6{font-size:44.4691px;}
	.st7{fill:url(#SVGID_1_);}
	.st8{fill:url(#SVGID_00000082350925072058133730000014557931018904859284_);}
	.st9{fill:url(#SVGID_00000137106603357530881320000016053934690857619872_);}
	.st10{fill:url(#SVGID_00000106132522901795351910000001223496608250884283_);}
	.st11{fill:url(#SVGID_00000014622978113281694270000003825937879141168292_);}
	.st12{fill:url(#SVGID_00000016758641700568466940000000425798329740379579_);}
	.st13{fill:url(#SVGID_00000063602494701724322760000006147012122342430885_);}
	.st14{fill:url(#SVGID_00000129179909292016361750000000698904722221555364_);}
	.st15{fill:url(#SVGID_00000139982872886855357140000016392204802939998624_);}
	.st16{fill:#E6E6E6;}
	.st17{fill:url(#SVGID_00000077284034795588725740000005119250823677803168_);}
	.st18{fill:url(#SVGID_00000021117289956255752180000007098421007845909177_);}
	.st19{fill:url(#SVGID_00000065754662436927442610000002967357245294885279_);}
	.st20{fill:url(#SVGID_00000143589581313995756800000014107300035417431940_);}
	.st21{fill:url(#SVGID_00000088824530900776523250000017131926481269010598_);}
	.st22{fill:url(#SVGID_00000102532814642111355110000017031598076172278947_);}
	.st23{fill:url(#SVGID_00000085972870151984586660000007598239324064363455_);}
	.st24{fill:url(#SVGID_00000041978493194874400220000016065576668736405126_);}
	.st25{fill:url(#SVGID_00000140013722823212299890000007609863666544206219_);}
	.st26{font-size:58.2454px;}
</style>
<path d="M582.97,699.14H335.7c-28.37,0-51.36-23-51.36-51.36V415.03c0-28.37,23-51.36,51.36-51.36h247.27
	c28.37,0,51.36,23,51.36,51.36v232.74C634.33,676.14,611.34,699.14,582.97,699.14z"/>
<path d="M1027.67,699.14H780.4c-28.37,0-51.36-23-51.36-51.36V415.03c0-28.37,23-51.36,51.36-51.36h247.27
	c28.37,0,51.36,23,51.36,51.36v232.74C1079.03,676.14,1056.04,699.14,1027.67,699.14z"/>
<g>
	<path class="st0" d="M310.35,130.42h-14.8V81.81l-13.48-4.67l-43.53-15.06v14.79l43.53,15.06v56.32c0,28.48-22.52,51.56-50.3,51.56
		c-27.78,0-50.73-23.09-50.73-51.56V91.94l43.53-15.06V62.08l-43.53,15.06l-13.48,4.67v49.28h-14.57c-0.43,0-0.78,0.35-0.78,0.78
		v12.42c0,0.43,0.35,0.78,0.78,0.78h14.57v3.2c0,36.39,28.65,65.88,64,65.88c35.35,0,64-29.5,64-65.88v-3.86h14.8
		c0.43,0,0.78-0.35,0.78-0.78V131.2C311.13,130.77,310.78,130.42,310.35,130.42z"/>
	<path class="st0" d="M147.96,101.57h-15.61c-0.45,0-0.82,0.37-0.82,0.82v72.27c0,0.45,0.37,0.82,0.82,0.82h15.61
		c0.45,0,0.82-0.37,0.82-0.82v-72.27C148.78,101.93,148.41,101.57,147.96,101.57z"/>
	<path class="st0" d="M127.29,107.22h-15.61c-0.45,0-0.82,0.37-0.82,0.82v61.42c0,0.45,0.37,0.82,0.82,0.82h15.61
		c0.45,0,0.82-0.37,0.82-0.82v-61.42C128.11,107.59,127.74,107.22,127.29,107.22z"/>
	<path class="st0" d="M106.62,114.21H91c-0.45,0-0.82,0.37-0.82,0.82v13.57l-5.77,2.78c-0.2,0.1-0.33,0.3-0.33,0.52v13.26
		c0,0.22,0.12,0.41,0.31,0.51l5.79,3v12.01c0,0.45,0.37,0.82,0.82,0.82h15.61c0.45,0,0.82-0.37,0.82-0.82v-45.65
		C107.43,114.58,107.07,114.21,106.62,114.21z"/>
	<path class="st0" d="M330.99,100.9h-15.61c-0.45,0-0.82,0.37-0.82,0.82v72.27c0,0.45,0.37,0.82,0.82,0.82h15.61
		c0.45,0,0.82-0.37,0.82-0.82v-72.27C331.8,101.27,331.44,100.9,330.99,100.9z"/>
	<path class="st0" d="M351.66,106.55h-15.61c-0.45,0-0.82,0.37-0.82,0.82v61.42c0,0.45,0.37,0.82,0.82,0.82h15.61
		c0.45,0,0.82-0.37,0.82-0.82v-61.42C352.47,106.92,352.11,106.55,351.66,106.55z"/>
	<path class="st0" d="M378.91,130.71l-5.77-2.78v-13.57c0-0.45-0.37-0.82-0.82-0.82h-15.61c-0.45,0-0.82,0.37-0.82,0.82v45.65
		c0,0.45,0.37,0.82,0.82,0.82h15.61c0.45,0,0.82-0.37,0.82-0.82v-12.01l5.79-3c0.19-0.1,0.31-0.3,0.31-0.51v-13.26
		C379.24,131.01,379.12,130.8,378.91,130.71z"/>
	<path class="st0" d="M268.31,145.83l0.03,0.01v-0.78v-14.01v-14.56v-14.34v-0.45l-29.8-10.31v14.79l16.32,5.65v14.56l-16.32-5.65
		v14.79l16.32,5.65v3.89h-0.01c0,10.43-6.86,19.26-16.31,22.23v14.37C255.44,178.43,267.95,163.68,268.31,145.83z"/>
	<path class="st0" d="M224.56,135.53v-14.79v-14.56V91.94v-0.55l-29.8,10.31v14.79l16.32-5.65v14.56l-16.32,5.65v2.24v12.55l0.03,0
		c0.36,17.84,12.87,32.58,29.76,35.82v-14.37c-9.45-2.97-16.31-11.8-16.31-22.23l0.02-3.89L224.56,135.53z"/>
</g>
<text transform="matrix(1.4799 0 0 1 79.8852 294.205)" class="st0 st1 st2">SUPER FIT</text>
<path class="st3" d="M681.57,212.27c35.35,0,64-29.5,64-65.88v-3.86h14.8c0.43,0,0.78-0.35,0.78-0.78v-12.42
	c0-0.43-0.35-0.78-0.78-0.78h-14.8V79.94l-13.48-4.67l-43.53-15.06V75l43.53,15.06v56.32l0,0c0,28.48-22.52,51.56-50.3,51.56
	c-27.78,0-50.73-23.09-50.73-51.56V90.06L674.58,75V60.21l-43.53,15.06l-13.48,4.67v49.28H603c-0.43,0-0.78,0.35-0.78,0.78v12.42
	c0,0.43,0.35,0.78,0.78,0.78h14.57v3.2C617.57,182.77,646.22,212.27,681.57,212.27z"/>
<path class="st3" d="M582.36,99.7c-0.45,0-0.82,0.37-0.82,0.82v72.27c0,0.45,0.37,0.82,0.82,0.82h15.61c0.45,0,0.82-0.37,0.82-0.82
	v-72.27c0-0.45-0.37-0.82-0.82-0.82H582.36z"/>
<path class="st3" d="M578.12,167.58v-61.42c0-0.45-0.37-0.82-0.82-0.82h-15.61c-0.45,0-0.82,0.37-0.82,0.82v61.42
	c0,0.45,0.37,0.82,0.82,0.82h15.61C577.76,168.4,578.12,168.03,578.12,167.58z"/>
<path class="st3" d="M556.64,112.34h-15.61c-0.45,0-0.82,0.37-0.82,0.82v13.57l-5.77,2.78c-0.2,0.1-0.33,0.3-0.33,0.52v13.26
	c0,0.22,0.12,0.41,0.31,0.51l5.79,3v12c0,0.45,0.37,0.82,0.82,0.82h15.61c0.45,0,0.82-0.37,0.82-0.82v-45.65
	C557.45,112.7,557.09,112.34,556.64,112.34z"/>
<path class="st3" d="M765.39,99.03c-0.45,0-0.82,0.37-0.82,0.82v72.27c0,0.45,0.37,0.82,0.82,0.82H781c0.45,0,0.82-0.37,0.82-0.82
	V99.85c0-0.45-0.37-0.82-0.82-0.82H765.39z"/>
<path class="st3" d="M801.67,104.68h-15.61c-0.45,0-0.82,0.37-0.82,0.82v61.42c0,0.45,0.37,0.82,0.82,0.82h15.61
	c0.45,0,0.82-0.37,0.82-0.82V105.5C802.49,105.04,802.13,104.68,801.67,104.68z"/>
<path class="st3" d="M828.93,128.83l-5.77-2.78v-13.57c0-0.45-0.37-0.82-0.82-0.82h-15.61c-0.45,0-0.82,0.37-0.82,0.82v45.65
	c0,0.45,0.37,0.82,0.82,0.82h15.61c0.45,0,0.82-0.37,0.82-0.82v-12l5.79-3c0.19-0.1,0.31-0.3,0.31-0.51v-13.26
	C829.26,129.13,829.13,128.93,828.93,128.83z"/>
<path class="st3" d="M704.87,143.19c0,10.43-6.86,19.26-16.31,22.23v14.37c16.9-3.24,29.41-17.99,29.77-35.83l0.03,0.01v-0.78
	v-14.01v-14.56v-14.34v-0.45l-29.8-10.31v14.79l16.32,5.65v14.56l-16.32-5.65v14.79l16.32,5.65L704.87,143.19L704.87,143.19z"/>
<path class="st3" d="M674.58,133.66v-14.79v-14.56V90.06v-0.55l-29.8,10.31v14.79l16.32-5.65v14.56l-16.32,5.65v2.24v12.55l0.03,0
	c0.36,17.84,12.87,32.58,29.76,35.82v-14.37c-9.45-2.97-16.31-11.8-16.31-22.23l0.02-3.89L674.58,133.66z"/>
<text transform="matrix(1.4799 0 0 1 529.9084 290.7479)" class="st3 st1 st4">SUPER FIT</text>
<path class="st5" d="M908.28,572.11c26.99,0,48.86-22.52,48.86-50.3v-2.95h11.3c0.33,0,0.6-0.27,0.6-0.6v-9.48
	c0-0.33-0.27-0.6-0.6-0.6h-11.3v-37.11l-10.29-3.56l-33.23-11.5v11.29l33.23,11.5v43l0,0c0,21.74-17.2,39.37-38.41,39.37
	c-21.21,0-38.73-17.63-38.73-39.37v-43l33.23-11.5v-11.29l-33.23,11.5l-10.29,3.56v37.62h-11.13c-0.33,0-0.6,0.27-0.6,0.6v9.48
	c0,0.33,0.27,0.6,0.6,0.6h11.13v2.44C859.41,549.59,881.29,572.11,908.28,572.11z"/>
<path class="st5" d="M832.53,486.16c-0.34,0-0.62,0.28-0.62,0.62v55.18c0,0.34,0.28,0.62,0.62,0.62h11.92
	c0.34,0,0.62-0.28,0.62-0.62v-55.18c0-0.34-0.28-0.62-0.62-0.62H832.53z"/>
<path class="st5" d="M829.3,537.99V491.1c0-0.34-0.28-0.62-0.62-0.62h-11.92c-0.34,0-0.62,0.28-0.62,0.62v46.89
	c0,0.34,0.28,0.62,0.62,0.62h11.92C829.02,538.61,829.3,538.33,829.3,537.99z"/>
<path class="st5" d="M812.89,495.81h-11.92c-0.34,0-0.62,0.28-0.62,0.62v10.36l-4.41,2.12c-0.15,0.07-0.25,0.23-0.25,0.4v10.13
	c0,0.16,0.09,0.32,0.24,0.39l4.42,2.29v9.17c0,0.34,0.28,0.62,0.62,0.62h11.92c0.34,0,0.62-0.28,0.62-0.62v-34.86
	C813.51,496.09,813.24,495.81,812.89,495.81z"/>
<path class="st5" d="M972.27,485.65c-0.35,0-0.62,0.28-0.62,0.62v55.18c0,0.34,0.28,0.62,0.62,0.62h11.92
	c0.35,0,0.62-0.28,0.62-0.62v-55.18c0-0.34-0.28-0.62-0.62-0.62H972.27z"/>
<path class="st5" d="M999.97,489.96h-11.92c-0.34,0-0.62,0.28-0.62,0.62v46.89c0,0.34,0.28,0.62,0.62,0.62h11.92
	c0.34,0,0.62-0.28,0.62-0.62v-46.89C1000.6,490.24,1000.32,489.96,999.97,489.96z"/>
<path class="st5" d="M1020.78,508.41l-4.4-2.12v-10.36c0-0.34-0.28-0.62-0.62-0.62h-11.92c-0.34,0-0.62,0.28-0.62,0.62v34.86
	c0,0.34,0.28,0.62,0.62,0.62h11.92c0.34,0,0.62-0.28,0.62-0.62v-9.17l4.42-2.29c0.15-0.08,0.24-0.23,0.24-0.39V508.8
	C1021.03,508.63,1020.94,508.48,1020.78,508.41z"/>
<path class="st5" d="M926.06,519.37c0,7.96-5.24,14.7-12.45,16.97v10.97c12.9-2.47,22.45-13.73,22.73-27.35l0.03,0.01v-0.6v-10.7
	v-11.12v-10.95v-0.35l-22.75-7.87v11.29l12.46,4.31v11.12l-12.46-4.31v11.29l12.46,4.31L926.06,519.37L926.06,519.37z"/>
<path class="st5" d="M902.94,512.09V500.8v-11.12v-10.88v-0.42l-22.75,7.87v11.29l12.46-4.31v11.12l-12.46,4.31v1.71v9.58l0.03,0
	c0.27,13.62,9.82,24.88,22.72,27.35v-10.97c-7.22-2.27-12.45-9.01-12.45-16.97l0.01-2.97L902.94,512.09z"/>
<text transform="matrix(1.4799 0 0 1 792.3584 634.4609)" class="st5 st1 st6">SUPER FIT</text>
<linearGradient id="SVGID_1_" gradientUnits="userSpaceOnUse" x1="382.8795" y1="505.6331" x2="396.05" y2="505.6331">
	<stop  offset="0" style="stop-color:#FF7F83"/>
	<stop  offset="0.092" style="stop-color:#FF767B"/>
	<stop  offset="0.245" style="stop-color:#FF5C65"/>
	<stop  offset="0.4388" style="stop-color:#FF3342"/>
	<stop  offset="0.5629" style="stop-color:#FF1528"/>
	<stop  offset="0.8652" style="stop-color:#D4001D"/>
	<stop  offset="0.9944" style="stop-color:#ED1C24"/>
</linearGradient>
<path class="st7" d="M383.5,477.42c-0.34,0-0.62,0.28-0.62,0.62v55.18c0,0.34,0.28,0.62,0.62,0.62h11.92c0.34,0,0.62-0.28,0.62-0.62
	v-55.18c0-0.34-0.28-0.62-0.62-0.62H383.5z"/>
<linearGradient id="SVGID_00000160870922175409833430000000783092129703349435_" gradientUnits="userSpaceOnUse" x1="367.0978" y1="505.8035" x2="380.2683" y2="505.8035">
	<stop  offset="0" style="stop-color:#FF7F83"/>
	<stop  offset="0.092" style="stop-color:#FF767B"/>
	<stop  offset="0.245" style="stop-color:#FF5C65"/>
	<stop  offset="0.4388" style="stop-color:#FF3342"/>
	<stop  offset="0.5629" style="stop-color:#FF1528"/>
	<stop  offset="0.8652" style="stop-color:#D4001D"/>
	<stop  offset="0.9944" style="stop-color:#ED1C24"/>
</linearGradient>
<path style="fill:url(#SVGID_00000160870922175409833430000000783092129703349435_);" d="M380.27,529.25v-46.89
	c0-0.34-0.28-0.62-0.62-0.62h-11.92c-0.34,0-0.62,0.28-0.62,0.62v46.89c0,0.34,0.28,0.62,0.62,0.62h11.92
	C379.99,529.87,380.27,529.59,380.27,529.25z"/>
<linearGradient id="SVGID_00000168837160168158908440000015367644585644723352_" gradientUnits="userSpaceOnUse" x1="346.6609" y1="505.1222" x2="364.4865" y2="505.1222">
	<stop  offset="0" style="stop-color:#FF7F83"/>
	<stop  offset="0.092" style="stop-color:#FF767B"/>
	<stop  offset="0.245" style="stop-color:#FF5C65"/>
	<stop  offset="0.4388" style="stop-color:#FF3342"/>
	<stop  offset="0.5629" style="stop-color:#FF1528"/>
	<stop  offset="0.8652" style="stop-color:#D4001D"/>
	<stop  offset="0.9944" style="stop-color:#ED1C24"/>
</linearGradient>
<path style="fill:url(#SVGID_00000168837160168158908440000015367644585644723352_);" d="M363.86,487.07h-11.92
	c-0.34,0-0.62,0.28-0.62,0.62v10.36l-4.41,2.12c-0.15,0.07-0.25,0.23-0.25,0.4v10.13c0,0.16,0.09,0.32,0.24,0.39l4.42,2.29v9.17
	c0,0.34,0.28,0.62,0.62,0.62h11.92c0.34,0,0.62-0.28,0.62-0.62v-34.86C364.49,487.35,364.21,487.07,363.86,487.07z"/>
<linearGradient id="SVGID_00000059288113248294399810000013403302196872441000_" gradientUnits="userSpaceOnUse" x1="522.6166" y1="505.1222" x2="535.7867" y2="505.1222">
	<stop  offset="8.417908e-07" style="stop-color:#FF7F83"/>
	<stop  offset="0.0927" style="stop-color:#FF767B"/>
	<stop  offset="0.2469" style="stop-color:#FF5C65"/>
	<stop  offset="0.4423" style="stop-color:#FF3342"/>
	<stop  offset="0.5674" style="stop-color:#FF1528"/>
	<stop  offset="0.8652" style="stop-color:#D4001D"/>
	<stop  offset="1" style="stop-color:#ED1C24"/>
</linearGradient>
<path style="fill:url(#SVGID_00000059288113248294399810000013403302196872441000_);" d="M523.24,476.91
	c-0.35,0-0.62,0.28-0.62,0.62v55.18c0,0.34,0.28,0.62,0.62,0.62h11.92c0.35,0,0.62-0.28,0.62-0.62v-55.18
	c0-0.34-0.28-0.62-0.62-0.62H523.24z"/>
<linearGradient id="SVGID_00000143600468296817770670000006625207560332116152_" gradientUnits="userSpaceOnUse" x1="538.3984" y1="505.2926" x2="551.5688" y2="505.2926">
	<stop  offset="8.417908e-07" style="stop-color:#FF7F83"/>
	<stop  offset="0.0927" style="stop-color:#FF767B"/>
	<stop  offset="0.2469" style="stop-color:#FF5C65"/>
	<stop  offset="0.4423" style="stop-color:#FF3342"/>
	<stop  offset="0.5674" style="stop-color:#FF1528"/>
	<stop  offset="0.8652" style="stop-color:#D4001D"/>
	<stop  offset="1" style="stop-color:#ED1C24"/>
</linearGradient>
<path style="fill:url(#SVGID_00000143600468296817770670000006625207560332116152_);" d="M550.94,481.22h-11.92
	c-0.34,0-0.62,0.28-0.62,0.62v46.89c0,0.34,0.28,0.62,0.62,0.62h11.92c0.34,0,0.62-0.28,0.62-0.62v-46.89
	C551.57,481.5,551.29,481.22,550.94,481.22z"/>
<linearGradient id="SVGID_00000137813359470059423860000007474885937373046206_" gradientUnits="userSpaceOnUse" x1="554.1801" y1="504.6113" x2="572.0056" y2="504.6113">
	<stop  offset="8.417908e-07" style="stop-color:#FF7F83"/>
	<stop  offset="0.0927" style="stop-color:#FF767B"/>
	<stop  offset="0.2469" style="stop-color:#FF5C65"/>
	<stop  offset="0.4423" style="stop-color:#FF3342"/>
	<stop  offset="0.5674" style="stop-color:#FF1528"/>
	<stop  offset="0.8652" style="stop-color:#D4001D"/>
	<stop  offset="1" style="stop-color:#ED1C24"/>
</linearGradient>
<path style="fill:url(#SVGID_00000137813359470059423860000007474885937373046206_);" d="M571.76,499.67l-4.4-2.12v-10.36
	c0-0.34-0.28-0.62-0.62-0.62H554.8c-0.34,0-0.62,0.28-0.62,0.62v34.86c0,0.34,0.28,0.62,0.62,0.62h11.92c0.34,0,0.62-0.28,0.62-0.62
	v-9.17l4.42-2.29c0.15-0.08,0.24-0.23,0.24-0.39v-10.13C572.01,499.89,571.91,499.74,571.76,499.67z"/>
<g>
	
		<linearGradient id="SVGID_00000094598851422048610570000011454781567944443025_" gradientUnits="userSpaceOnUse" x1="398.6614" y1="505.3191" x2="520.0056" y2="505.3191">
		<stop  offset="8.417908e-07" style="stop-color:#FF7F83"/>
		<stop  offset="0.0927" style="stop-color:#FF767B"/>
		<stop  offset="0.2469" style="stop-color:#FF5C65"/>
		<stop  offset="0.4423" style="stop-color:#FF3342"/>
		<stop  offset="0.5674" style="stop-color:#FF1528"/>
		<stop  offset="0.8652" style="stop-color:#D4001D"/>
		<stop  offset="1" style="stop-color:#ED1C24"/>
	</linearGradient>
	<path style="fill:url(#SVGID_00000094598851422048610570000011454781567944443025_);" d="M519.41,499.44h-11.3v-37.11l-10.29-3.56
		l-33.23-11.5v11.29l33.23,11.5v43c0,21.74-17.2,39.37-38.41,39.37c-21.21,0-38.73-17.63-38.73-39.37v-43l33.23-11.5v-11.29
		l-33.23,11.5l-10.29,3.56v37.62h-11.13c-0.33,0-0.6,0.27-0.6,0.6v9.48c0,0.33,0.27,0.6,0.6,0.6h11.13v2.44
		c0,27.78,21.88,50.3,48.86,50.3c26.99,0,48.86-22.52,48.86-50.3v-2.95h11.3c0.33,0,0.6-0.27,0.6-0.6v-9.48
		C520.01,499.71,519.74,499.44,519.41,499.44z"/>
	
		<linearGradient id="SVGID_00000130645868840195593790000005192418937472811943_" gradientUnits="userSpaceOnUse" x1="464.5842" y1="504.1078" x2="487.3347" y2="504.1078">
		<stop  offset="2.877006e-07" style="stop-color:#FF7F83"/>
		<stop  offset="0.0927" style="stop-color:#FF767B"/>
		<stop  offset="0.2469" style="stop-color:#FF5C65"/>
		<stop  offset="0.4423" style="stop-color:#FF3342"/>
		<stop  offset="0.5674" style="stop-color:#FF1528"/>
		<stop  offset="0.8652" style="stop-color:#D4001D"/>
		<stop  offset="1" style="stop-color:#ED1C24"/>
	</linearGradient>
	<path style="fill:url(#SVGID_00000130645868840195593790000005192418937472811943_);" d="M487.31,511.21l0.03,0.01v-0.6v-10.7
		v-11.12v-10.95v-0.35l-22.75-7.87v11.29l12.46,4.31v11.12l-12.46-4.31v11.29l12.46,4.31v2.97h-0.01c0,7.96-5.24,14.7-12.45,16.97
		v10.97C477.49,536.1,487.04,524.84,487.31,511.21z"/>
	
		<linearGradient id="SVGID_00000182523967911104214660000015533634537332685241_" gradientUnits="userSpaceOnUse" x1="431.1616" y1="504.1078" x2="453.9121" y2="504.1078">
		<stop  offset="2.877006e-07" style="stop-color:#FF7F83"/>
		<stop  offset="0.0927" style="stop-color:#FF767B"/>
		<stop  offset="0.2469" style="stop-color:#FF5C65"/>
		<stop  offset="0.4423" style="stop-color:#FF3342"/>
		<stop  offset="0.5674" style="stop-color:#FF1528"/>
		<stop  offset="0.8652" style="stop-color:#D4001D"/>
		<stop  offset="1" style="stop-color:#ED1C24"/>
	</linearGradient>
	<path style="fill:url(#SVGID_00000182523967911104214660000015533634537332685241_);" d="M453.91,503.35v-11.29v-11.12v-10.88
		v-0.42l-22.75,7.87v11.29l12.46-4.31v11.12l-12.46,4.31v1.71v9.58l0.03,0c0.27,13.62,9.82,24.88,22.72,27.35V527.6
		c-7.22-2.27-12.45-9.01-12.45-16.97l0.01-2.97L453.91,503.35z"/>
</g>
<text transform="matrix(1.4799 0 0 1 344.4857 623.2779)" class="st16 st1 st6">SUPER FIT</text>
<linearGradient id="SVGID_00000147199509590364695600000008223360791054848431_" gradientUnits="userSpaceOnUse" x1="1034.5751" y1="136.3052" x2="1051.8257" y2="136.3052">
	<stop  offset="0" style="stop-color:#FF7F83"/>
	<stop  offset="0.092" style="stop-color:#FF767B"/>
	<stop  offset="0.245" style="stop-color:#FF5C65"/>
	<stop  offset="0.4388" style="stop-color:#FF3342"/>
	<stop  offset="0.5629" style="stop-color:#FF1528"/>
	<stop  offset="0.8652" style="stop-color:#D4001D"/>
	<stop  offset="0.9944" style="stop-color:#ED1C24"/>
</linearGradient>
<path style="fill:url(#SVGID_00000147199509590364695600000008223360791054848431_);" d="M1035.39,99.35
	c-0.45,0-0.82,0.37-0.82,0.82v72.27c0,0.45,0.37,0.82,0.82,0.82h15.61c0.45,0,0.82-0.37,0.82-0.82v-72.27
	c0-0.45-0.37-0.82-0.82-0.82H1035.39z"/>
<linearGradient id="SVGID_00000005237359416052785370000003019169355664176318_" gradientUnits="userSpaceOnUse" x1="1013.9042" y1="136.5283" x2="1031.1548" y2="136.5283">
	<stop  offset="0" style="stop-color:#FF7F83"/>
	<stop  offset="0.092" style="stop-color:#FF767B"/>
	<stop  offset="0.245" style="stop-color:#FF5C65"/>
	<stop  offset="0.4388" style="stop-color:#FF3342"/>
	<stop  offset="0.5629" style="stop-color:#FF1528"/>
	<stop  offset="0.8652" style="stop-color:#D4001D"/>
	<stop  offset="0.9944" style="stop-color:#ED1C24"/>
</linearGradient>
<path style="fill:url(#SVGID_00000005237359416052785370000003019169355664176318_);" d="M1031.15,167.24v-61.42
	c0-0.45-0.37-0.82-0.82-0.82h-15.61c-0.45,0-0.82,0.37-0.82,0.82v61.42c0,0.45,0.37,0.82,0.82,0.82h15.61
	C1030.79,168.06,1031.15,167.69,1031.15,167.24z"/>
<linearGradient id="SVGID_00000110461674276584758670000015082099704093139104_" gradientUnits="userSpaceOnUse" x1="987.136" y1="135.636" x2="1010.484" y2="135.636">
	<stop  offset="0" style="stop-color:#FF7F83"/>
	<stop  offset="0.092" style="stop-color:#FF767B"/>
	<stop  offset="0.245" style="stop-color:#FF5C65"/>
	<stop  offset="0.4388" style="stop-color:#FF3342"/>
	<stop  offset="0.5629" style="stop-color:#FF1528"/>
	<stop  offset="0.8652" style="stop-color:#D4001D"/>
	<stop  offset="0.9944" style="stop-color:#ED1C24"/>
</linearGradient>
<path style="fill:url(#SVGID_00000110461674276584758670000015082099704093139104_);" d="M1009.67,111.99h-15.61
	c-0.45,0-0.82,0.37-0.82,0.82v13.57l-5.77,2.78c-0.2,0.1-0.33,0.3-0.33,0.52v13.26c0,0.22,0.12,0.41,0.31,0.51l5.79,3v12.01
	c0,0.45,0.37,0.82,0.82,0.82h15.61c0.45,0,0.82-0.37,0.82-0.82v-45.65C1010.48,112.36,1010.12,111.99,1009.67,111.99z"/>
<linearGradient id="SVGID_00000052101207713525593030000003045796581600314047_" gradientUnits="userSpaceOnUse" x1="1217.6019" y1="135.636" x2="1234.8521" y2="135.636">
	<stop  offset="8.417908e-07" style="stop-color:#FF7F83"/>
	<stop  offset="0.0927" style="stop-color:#FF767B"/>
	<stop  offset="0.2469" style="stop-color:#FF5C65"/>
	<stop  offset="0.4423" style="stop-color:#FF3342"/>
	<stop  offset="0.5674" style="stop-color:#FF1528"/>
	<stop  offset="0.8652" style="stop-color:#D4001D"/>
	<stop  offset="1" style="stop-color:#ED1C24"/>
</linearGradient>
<path style="fill:url(#SVGID_00000052101207713525593030000003045796581600314047_);" d="M1218.42,98.68
	c-0.45,0-0.82,0.37-0.82,0.82v72.27c0,0.45,0.37,0.82,0.82,0.82h15.61c0.45,0,0.82-0.37,0.82-0.82V99.5c0-0.45-0.37-0.82-0.82-0.82
	H1218.42z"/>
<linearGradient id="SVGID_00000090257079505024705850000000719339131888051331_" gradientUnits="userSpaceOnUse" x1="1238.2728" y1="135.8591" x2="1255.5234" y2="135.8591">
	<stop  offset="8.417908e-07" style="stop-color:#FF7F83"/>
	<stop  offset="0.0927" style="stop-color:#FF767B"/>
	<stop  offset="0.2469" style="stop-color:#FF5C65"/>
	<stop  offset="0.4423" style="stop-color:#FF3342"/>
	<stop  offset="0.5674" style="stop-color:#FF1528"/>
	<stop  offset="0.8652" style="stop-color:#D4001D"/>
	<stop  offset="1" style="stop-color:#ED1C24"/>
</linearGradient>
<path style="fill:url(#SVGID_00000090257079505024705850000000719339131888051331_);" d="M1254.71,104.33h-15.61
	c-0.45,0-0.82,0.37-0.82,0.82v61.42c0,0.45,0.37,0.82,0.82,0.82h15.61c0.45,0,0.82-0.37,0.82-0.82v-61.42
	C1255.52,104.7,1255.16,104.33,1254.71,104.33z"/>
<linearGradient id="SVGID_00000016075934154043148700000000261064489366357924_" gradientUnits="userSpaceOnUse" x1="1258.9437" y1="134.9668" x2="1282.2913" y2="134.9668">
	<stop  offset="8.417908e-07" style="stop-color:#FF7F83"/>
	<stop  offset="0.0927" style="stop-color:#FF767B"/>
	<stop  offset="0.2469" style="stop-color:#FF5C65"/>
	<stop  offset="0.4423" style="stop-color:#FF3342"/>
	<stop  offset="0.5674" style="stop-color:#FF1528"/>
	<stop  offset="0.8652" style="stop-color:#D4001D"/>
	<stop  offset="1" style="stop-color:#ED1C24"/>
</linearGradient>
<path style="fill:url(#SVGID_00000016075934154043148700000000261064489366357924_);" d="M1281.96,128.49l-5.77-2.78v-13.57
	c0-0.45-0.37-0.82-0.82-0.82h-15.61c-0.45,0-0.82,0.37-0.82,0.82v45.65c0,0.45,0.37,0.82,0.82,0.82h15.61
	c0.45,0,0.82-0.37,0.82-0.82v-12.01l5.79-3c0.19-0.1,0.31-0.3,0.31-0.51v-13.26C1282.29,128.79,1282.16,128.59,1281.96,128.49z"/>
<g>
	
		<linearGradient id="SVGID_00000089571971492205722420000009461197918025448879_" gradientUnits="userSpaceOnUse" x1="1055.2461" y1="135.8939" x2="1214.182" y2="135.8939">
		<stop  offset="8.417908e-07" style="stop-color:#FF7F83"/>
		<stop  offset="0.0927" style="stop-color:#FF767B"/>
		<stop  offset="0.2469" style="stop-color:#FF5C65"/>
		<stop  offset="0.4423" style="stop-color:#FF3342"/>
		<stop  offset="0.5674" style="stop-color:#FF1528"/>
		<stop  offset="0.8652" style="stop-color:#D4001D"/>
		<stop  offset="1" style="stop-color:#ED1C24"/>
	</linearGradient>
	<path style="fill:url(#SVGID_00000089571971492205722420000009461197918025448879_);" d="M1213.4,128.2h-14.8V79.59l-13.48-4.67
		l-43.53-15.06v14.79l43.53,15.06v56.32c0,28.48-22.52,51.56-50.3,51.56c-27.78,0-50.73-23.09-50.73-51.56V89.72l43.53-15.06V59.86
		l-43.53,15.06l-13.48,4.67v49.28h-14.57c-0.43,0-0.78,0.35-0.78,0.78v12.42c0,0.43,0.35,0.78,0.78,0.78h14.57v3.2
		c0,36.39,28.65,65.88,64,65.88c35.35,0,64-29.5,64-65.88v-3.86h14.8c0.43,0,0.78-0.35,0.78-0.78v-12.42
		C1214.18,128.55,1213.83,128.2,1213.4,128.2z"/>
	
		<linearGradient id="SVGID_00000059312371999905915760000008105319125813343922_" gradientUnits="userSpaceOnUse" x1="1141.5914" y1="134.3074" x2="1171.3899" y2="134.3074">
		<stop  offset="2.877006e-07" style="stop-color:#FF7F83"/>
		<stop  offset="0.0927" style="stop-color:#FF767B"/>
		<stop  offset="0.2469" style="stop-color:#FF5C65"/>
		<stop  offset="0.4423" style="stop-color:#FF3342"/>
		<stop  offset="0.5674" style="stop-color:#FF1528"/>
		<stop  offset="0.8652" style="stop-color:#D4001D"/>
		<stop  offset="1" style="stop-color:#ED1C24"/>
	</linearGradient>
	<path style="fill:url(#SVGID_00000059312371999905915760000008105319125813343922_);" d="M1171.36,143.62l0.03,0.01v-0.78v-14.01
		v-14.56V99.94v-0.45l-29.8-10.31v14.79l16.32,5.65v14.56l-16.32-5.65v14.79l16.32,5.65v3.89h-0.01c0,10.43-6.86,19.26-16.31,22.23
		v14.37C1158.49,176.21,1171,161.46,1171.36,143.62z"/>
	
		<linearGradient id="SVGID_00000042705833473948595470000002351587226206740609_" gradientUnits="userSpaceOnUse" x1="1097.8147" y1="134.3074" x2="1127.6132" y2="134.3074">
		<stop  offset="2.877006e-07" style="stop-color:#FF7F83"/>
		<stop  offset="0.0927" style="stop-color:#FF767B"/>
		<stop  offset="0.2469" style="stop-color:#FF5C65"/>
		<stop  offset="0.4423" style="stop-color:#FF3342"/>
		<stop  offset="0.5674" style="stop-color:#FF1528"/>
		<stop  offset="0.8652" style="stop-color:#D4001D"/>
		<stop  offset="1" style="stop-color:#ED1C24"/>
	</linearGradient>
	<path style="fill:url(#SVGID_00000042705833473948595470000002351587226206740609_);" d="M1127.61,133.32v-14.79v-14.56V89.72
		v-0.55l-29.8,10.31v14.79l16.31-5.65v14.56l-16.31,5.65v2.24v12.55l0.03,0c0.36,17.84,12.87,32.58,29.76,35.82v-14.37
		c-9.45-2.97-16.31-11.8-16.31-22.23l0.02-3.89L1127.61,133.32z"/>
</g>
<text transform="matrix(1.4799 0 0 1 984.1813 291.0938)" class="st1 st26">SUPER FIT</text>
</svg>
