<?xml version="1.0" encoding="utf-8"?>
<!-- Generator: Adobe Illustrator 25.2.1, SVG Export Plug-In . SVG Version: 6.00 Build 0)  -->
<svg version="1.1" id="Camada_1" focusable="false" xmlns="http://www.w3.org/2000/svg" xmlns:xlink="http://www.w3.org/1999/xlink"
	 x="0px" y="0px" viewBox="0 0 448 512" style="enable-background:new 0 0 448 512;" xml:space="preserve">
<style type="text/css">
	.st0{fill:#FFFFFF;}
</style>
<path class="st0" d="M77,120.7l4-31.1c1.7-13.2,13.7-22.5,26.8-20.7l272.6,35.2c13.2,1.7,22.5,13.7,20.7,26.8l-35.2,272.5
	c-1.7,13.2-13.7,22.5-26.8,20.7l-31.1-4c-13.3-1.7-22.6-14.1-20.6-27.4l25.3-164.4L85,403.8c-10.5,8.1-25.5,6.2-33.7-4.4l-19.5-25.3
	c-8.1-10.5-6.2-25.5,4.4-33.7L263.8,165L98.2,147.6C84.8,146.3,75.2,134.1,77,120.7z"/>
</svg>
