<?xml version="1.0" encoding="utf-8"?>
<!-- Generator: Adobe Illustrator 25.2.1, SVG Export Plug-In . SVG Version: 6.00 Build 0)  -->
<svg version="1.1" id="Camada_1" focusable="false" xmlns="http://www.w3.org/2000/svg" xmlns:xlink="http://www.w3.org/1999/xlink"
	 x="0px" y="0px" viewBox="0 0 448 512" style="enable-background:new 0 0 448 512;" xml:space="preserve">
<style type="text/css">
	.st0{fill:#282828;}
</style>
<path class="st0" d="M128,148v-40c0-6.6,5.4-12,12-12h40c6.6,0,12,5.4,12,12v40c0,6.6-5.4,12-12,12h-40C133.4,160,128,154.6,128,148
	z M268,160h40c6.6,0,12-5.4,12-12v-40c0-6.6-5.4-12-12-12h-40c-6.6,0-12,5.4-12,12v40C256,154.6,261.4,160,268,160z M140,256h40
	c6.6,0,12-5.4,12-12v-40c0-6.6-5.4-12-12-12h-40c-6.6,0-12,5.4-12,12v40C128,250.6,133.4,256,140,256z M268,256h40
	c6.6,0,12-5.4,12-12v-40c0-6.6-5.4-12-12-12h-40c-6.6,0-12,5.4-12,12v40C256,250.6,261.4,256,268,256z M192,340v-40
	c0-6.6-5.4-12-12-12h-40c-6.6,0-12,5.4-12,12v40c0,6.6,5.4,12,12,12h40C186.6,352,192,346.6,192,340z M268,352h40
	c6.6,0,12-5.4,12-12v-40c0-6.6-5.4-12-12-12h-40c-6.6,0-12,5.4-12,12v40C256,346.6,261.4,352,268,352z M448,476v36H0v-36
	c0-6.6,5.4-12,12-12h19.5V24c0-13.3,10.7-24,24-24h337c13.3,0,24,10.7,24,24v440H436C442.6,464,448,469.4,448,476z M79.5,463H192
	v-67c0-6.6,5.4-12,12-12h40c6.6,0,12,5.4,12,12v67h112.5V49L80,48L79.5,463z"/>
</svg>
