<?xml version="1.0" encoding="utf-8"?>
<!-- Generator: Adobe Illustrator 25.2.1, SVG Export Plug-In . SVG Version: 6.00 Build 0)  -->
<svg version="1.1" id="Camada_1" focusable="false" xmlns="http://www.w3.org/2000/svg" xmlns:xlink="http://www.w3.org/1999/xlink"
	 x="0px" y="0px" viewBox="0 0 448 512" style="enable-background:new 0 0 448 512;" xml:space="preserve">
<style type="text/css">
	.st0{fill:#282828;}
</style>
<path class="st0" d="M313.6,304c-28.7,0-42.5,16-89.6,16s-60.8-16-89.6-16C60.2,304,0,364.2,0,438.4V464c0,26.5,21.5,48,48,48h352
	c26.5,0,48-21.5,48-48v-25.6C448,364.2,387.8,304,313.6,304z M400,464H48v-25.6c0-47.6,38.8-86.4,86.4-86.4c14.6,0,38.3,16,89.6,16
	c51.7,0,74.9-16,89.6-16c47.6,0,86.4,38.8,86.4,86.4V464z M224,288c79.5,0,144-64.5,144-144S303.5,0,224,0S80,64.5,80,144
	S144.5,288,224,288z M224,48c52.9,0,96,43.1,96,96s-43.1,96-96,96s-96-43.1-96-96S171.1,48,224,48z"/>
</svg>
