<?xml version="1.0" encoding="utf-8"?>
<!-- Generator: Adobe Illustrator 25.4.1, SVG Export Plug-In . SVG Version: 6.00 Build 0)  -->
<svg version="1.1" id="Layer_1" xmlns="http://www.w3.org/2000/svg" xmlns:xlink="http://www.w3.org/1999/xlink" x="0px" y="0px"
	 viewBox="0 0 347 153" style="enable-background:new 0 0 347 153;" xml:space="preserve">
<style type="text/css">
	.st0{fill:#FF0000;}
	.st1{fill:#FFFFFF;}
</style>
<g>
	<path class="st0" d="M134.2,97.1H162c0.2,0,0.4,0.1,0.5,0.3c0.1,0.2,0.1,0.4-0.1,0.6l-4.4,5.8c-0.5,0.6-1.2,1-2,1h-14.8v9.6h15
		c0.5,0,0.7,0.2,0.7,0.7v6.1c0,0.5-0.2,0.8-0.7,0.8h-15v16.4c0,0.5-0.3,0.7-0.8,0.7h-6.2c-0.2,0-0.4-0.1-0.5-0.2
		c-0.1-0.1-0.2-0.3-0.2-0.5V97.8c0-0.2,0.1-0.4,0.2-0.5C133.8,97.1,134,97.1,134.2,97.1z"/>
	<path class="st0" d="M167.9,97.1h6.2c0.5,0,0.8,0.2,0.8,0.7v40.6c0,0.5-0.3,0.7-0.8,0.7h-6.2c-0.2,0-0.4-0.1-0.5-0.2
		c-0.1-0.1-0.2-0.3-0.2-0.5V97.8c0-0.2,0.1-0.4,0.2-0.5C167.6,97.1,167.7,97.1,167.9,97.1z"/>
	<path class="st0" d="M181.4,97.7c0-0.2,0.1-0.4,0.2-0.5c0.1-0.1,0.3-0.2,0.5-0.2h26c0.8,0,1.5,0.3,2,1l4.4,5.8
		c0.2,0.2,0.2,0.4,0.1,0.6c-0.1,0.2-0.3,0.3-0.5,0.3h-13.4v33.7c0,0.5-0.2,0.7-0.7,0.7h-6.2c-0.5,0-0.7-0.2-0.7-0.7v-33.7h-11
		c-0.2,0-0.4-0.1-0.5-0.2c-0.1-0.1-0.2-0.3-0.2-0.5V97.7z"/>
</g>
<g>
	<path d="M131.7,97.1h27.8c0.2,0,0.4,0.1,0.5,0.3c0.1,0.2,0.1,0.4-0.1,0.6l-4.4,5.8c-0.5,0.6-1.2,1-2,1h-14.8v9.6h15
		c0.5,0,0.7,0.2,0.7,0.7v6.1c0,0.5-0.2,0.8-0.7,0.8h-15v16.4c0,0.5-0.3,0.7-0.8,0.7h-6.2c-0.2,0-0.4-0.1-0.5-0.2
		c-0.1-0.1-0.2-0.3-0.2-0.5V97.8c0-0.2,0.1-0.4,0.2-0.5C131.3,97.1,131.5,97.1,131.7,97.1z"/>
	<path d="M165.4,97.1h6.2c0.5,0,0.8,0.2,0.8,0.7v40.6c0,0.5-0.3,0.7-0.8,0.7h-6.2c-0.2,0-0.4-0.1-0.5-0.2c-0.1-0.1-0.2-0.3-0.2-0.5
		V97.8c0-0.2,0.1-0.4,0.2-0.5C165.1,97.1,165.2,97.1,165.4,97.1z"/>
	<path d="M178.9,97.7c0-0.2,0.1-0.4,0.2-0.5c0.1-0.1,0.3-0.2,0.5-0.2h26c0.8,0,1.5,0.3,2,1l4.4,5.8c0.2,0.2,0.2,0.4,0.1,0.6
		c-0.1,0.2-0.3,0.3-0.5,0.3h-13.4v33.7c0,0.5-0.2,0.7-0.7,0.7h-6.2c-0.5,0-0.7-0.2-0.7-0.7v-33.7h-11c-0.2,0-0.4-0.1-0.5-0.2
		c-0.1-0.1-0.2-0.3-0.2-0.5V97.7z"/>
</g>
<g>
	<path d="M78.7,42.4c0-1.9,0.4-3.6,1.2-5.2c0.8-1.6,1.8-3,3.2-4.1c1.3-1.2,2.9-2.1,4.7-2.8c1.8-0.7,3.7-1,5.7-1
		c3.1,0,5.8,0.6,8.1,1.6c2.3,1.1,4,2.4,5.2,3.8c0.3,0.4,0.3,0.7-0.1,1l-4.1,4.3c-0.2,0.2-0.4,0.2-0.6,0.2c-0.2,0-0.4-0.1-0.6-0.3
		c-0.4-0.4-0.8-0.8-1.3-1.2c-0.5-0.4-1.2-0.8-1.9-1.1c-0.7-0.3-1.5-0.6-2.2-0.8c-0.8-0.2-1.6-0.3-2.5-0.3c-1,0-1.9,0.1-2.7,0.5
		c-0.8,0.3-1.5,0.7-2.1,1.2c-0.6,0.5-1,1-1.3,1.7c-0.3,0.6-0.5,1.3-0.5,2c0,1.2,0.4,2.2,1.1,3c0.8,0.8,1.9,1.4,3.4,1.7l5.9,1.1
		c1.9,0.4,3.6,0.9,5.1,1.7c1.5,0.8,2.7,1.7,3.7,2.8c1,1.1,1.7,2.3,2.2,3.6c0.5,1.3,0.8,2.8,0.8,4.2c0,1.6-0.3,3.2-1,4.7
		c-0.7,1.6-1.6,3-2.9,4.2c-1.3,1.2-2.9,2.2-4.8,3c-1.9,0.7-4,1.1-6.5,1.1c-1.7,0-3.3-0.2-4.8-0.5s-2.9-0.8-4.1-1.4
		c-1.2-0.6-2.3-1.2-3.2-1.9c-0.9-0.7-1.7-1.4-2.3-2.1c-0.3-0.3-0.3-0.6,0-1l3.8-4.9c0.1-0.2,0.3-0.3,0.5-0.3c0.2,0,0.4,0.1,0.6,0.2
		c0.6,0.5,1.2,1,1.9,1.6c0.7,0.5,1.4,1,2.2,1.5c0.8,0.4,1.7,0.8,2.6,1.1c0.9,0.3,1.9,0.4,2.9,0.4c2.2,0,3.9-0.5,5-1.4
		c1.2-1,1.7-2.2,1.7-3.7c0-1.2-0.4-2.2-1.3-3.1s-2.1-1.5-3.8-1.8l-5.9-1.2c-3.4-0.7-6-2.1-8-4.1C79.7,48.2,78.7,45.6,78.7,42.4z"/>
	<path d="M115.5,30h6.2c0.2,0,0.4,0.1,0.5,0.2c0.1,0.1,0.2,0.3,0.2,0.5v26c0,1.1,0.2,2.1,0.6,3.1c0.4,1,0.9,1.9,1.6,2.6
		c0.7,0.8,1.4,1.4,2.4,1.9c0.9,0.5,1.9,0.8,3,0.9c1.2,0.1,2.4,0,3.5-0.4c1.1-0.4,2.1-1,2.9-1.7c0.8-0.8,1.5-1.7,2-2.7
		c0.5-1.1,0.7-2.2,0.7-3.4V30.7c0-0.2,0.1-0.4,0.2-0.5c0.2-0.1,0.3-0.2,0.5-0.2h6.1c0.2,0,0.4,0.1,0.5,0.2c0.1,0.1,0.2,0.3,0.2,0.5
		v26.2c0,2.2-0.4,4.2-1.2,6.1c-0.8,1.9-1.9,3.6-3.3,5c-1.4,1.4-3.1,2.6-5,3.5c-1.9,0.9-3.9,1.3-6.1,1.3c-2.2,0-4.3-0.4-6.3-1.2
		c-2-0.9-3.7-2-5.2-3.5c-1.5-1.5-2.6-3.2-3.5-5.2s-1.3-4.1-1.3-6.3V30.7c0-0.2,0.1-0.4,0.2-0.5C115.2,30,115.3,30,115.5,30z"/>
	<path d="M155.2,71.2V30.7c0-0.2,0.1-0.4,0.2-0.5c0.1-0.1,0.3-0.2,0.5-0.2h31.7c0.2,0,0.4,0.1,0.5,0.2c0.1,0.1,0.2,0.3,0.2,0.5v8.8
		c0,0.6-0.2,1.1-0.5,1.5l-8.8,11.5c-0.5,0.6-1.2,1-2,1h-7.6c-0.2,0-0.4-0.1-0.5-0.3c-0.1-0.2-0.1-0.4,0.1-0.6l11.5-15h-17.6v33.7
		c0,0.5-0.3,0.7-0.8,0.7H156c-0.2,0-0.4-0.1-0.5-0.2C155.3,71.6,155.2,71.4,155.2,71.2z"/>
	<path d="M195.3,30.1h27.8c0.2,0,0.4,0.1,0.5,0.3s0.1,0.4-0.1,0.6l-4.4,5.8c-0.5,0.6-1.2,1-2,1h-14.8v9.6h15c0.5,0,0.7,0.2,0.7,0.7
		v6.1c0,0.5-0.2,0.8-0.7,0.8h-15v9.5h19c0.2,0,0.4,0.1,0.5,0.2c0.1,0.1,0.2,0.3,0.2,0.5v6.2c0,0.5-0.2,0.7-0.7,0.7h-25.9
		c-0.2,0-0.4-0.1-0.5-0.2c-0.1-0.1-0.2-0.3-0.2-0.5V30.8c0-0.2,0.1-0.4,0.2-0.5C195,30.1,195.1,30.1,195.3,30.1z"/>
	<path d="M232.3,30.7c0-0.2,0.1-0.4,0.2-0.5c0.1-0.1,0.3-0.2,0.5-0.2h31.7c0.2,0,0.4,0.1,0.5,0.2c0.1,0.1,0.2,0.3,0.2,0.5v8.8
		c0,0.6-0.2,1.1-0.5,1.5l-9.5,12.4l13.6,17.7c0.1,0.2,0.1,0.4,0,0.6c-0.1,0.2-0.3,0.3-0.5,0.3h-7.6c-0.8,0-1.5-0.3-2-1l-13.1-17.1
		c-0.3-0.3-0.3-0.6,0-0.9l11.8-15.4H240v33.7c0,0.5-0.3,0.7-0.8,0.7H233c-0.2,0-0.4-0.1-0.5-0.2c-0.1-0.1-0.2-0.3-0.2-0.5V30.7z"/>
</g>
<g>
	<path class="st0" d="M75.7,41.4c0-1.9,0.4-3.6,1.2-5.2c0.8-1.6,1.8-3,3.2-4.1c1.3-1.2,2.9-2.1,4.7-2.8c1.8-0.7,3.7-1,5.7-1
		c3.1,0,5.8,0.6,8.1,1.6c2.3,1.1,4,2.4,5.2,3.8c0.3,0.4,0.3,0.7-0.1,1L99.6,39c-0.2,0.2-0.4,0.2-0.6,0.2c-0.2,0-0.4-0.1-0.6-0.3
		c-0.4-0.4-0.8-0.8-1.3-1.2c-0.5-0.4-1.2-0.8-1.9-1.1c-0.7-0.3-1.5-0.6-2.2-0.8c-0.8-0.2-1.6-0.3-2.5-0.3c-1,0-1.9,0.1-2.7,0.5
		c-0.8,0.3-1.5,0.7-2.1,1.2c-0.6,0.5-1,1-1.3,1.7c-0.3,0.6-0.5,1.3-0.5,2c0,1.2,0.4,2.2,1.1,3c0.8,0.8,1.9,1.4,3.4,1.7l5.9,1.1
		c1.9,0.4,3.6,0.9,5.1,1.7c1.5,0.8,2.7,1.7,3.7,2.8c1,1.1,1.7,2.3,2.2,3.6c0.5,1.3,0.8,2.8,0.8,4.2c0,1.6-0.3,3.2-1,4.7
		c-0.7,1.6-1.6,3-2.9,4.2c-1.3,1.2-2.9,2.2-4.8,3c-1.9,0.7-4,1.1-6.5,1.1c-1.7,0-3.3-0.2-4.8-0.5s-2.9-0.8-4.1-1.4
		c-1.2-0.6-2.3-1.2-3.2-1.9c-0.9-0.7-1.7-1.4-2.3-2.1c-0.3-0.3-0.3-0.6,0-1l3.8-4.9c0.1-0.2,0.3-0.3,0.5-0.3c0.2,0,0.4,0.1,0.6,0.2
		c0.6,0.5,1.2,1,1.9,1.6c0.7,0.5,1.4,1,2.2,1.5c0.8,0.4,1.7,0.8,2.6,1.1c0.9,0.3,1.9,0.4,2.9,0.4c2.2,0,3.9-0.5,5-1.4
		c1.2-1,1.7-2.2,1.7-3.7c0-1.2-0.4-2.2-1.3-3.1s-2.1-1.5-3.8-1.8l-5.9-1.2c-3.4-0.7-6-2.1-8-4.1C76.7,47.2,75.7,44.6,75.7,41.4z"/>
	<path class="st0" d="M112.5,29h6.2c0.2,0,0.4,0.1,0.5,0.2c0.1,0.1,0.2,0.3,0.2,0.5v26c0,1.1,0.2,2.1,0.6,3.1c0.4,1,0.9,1.9,1.6,2.6
		c0.7,0.8,1.4,1.4,2.4,1.9c0.9,0.5,1.9,0.8,3,0.9c1.2,0.1,2.4,0,3.5-0.4c1.1-0.4,2.1-1,2.9-1.7c0.8-0.8,1.5-1.7,2-2.7
		c0.5-1.1,0.7-2.2,0.7-3.4V29.7c0-0.2,0.1-0.4,0.2-0.5c0.2-0.1,0.3-0.2,0.5-0.2h6.1c0.2,0,0.4,0.1,0.5,0.2c0.1,0.1,0.2,0.3,0.2,0.5
		v26.2c0,2.2-0.4,4.2-1.2,6.1c-0.8,1.9-1.9,3.6-3.3,5c-1.4,1.4-3.1,2.6-5,3.5c-1.9,0.9-3.9,1.3-6.1,1.3c-2.2,0-4.3-0.4-6.3-1.2
		c-2-0.9-3.7-2-5.2-3.5c-1.5-1.5-2.6-3.2-3.5-5.2s-1.3-4.1-1.3-6.3V29.7c0-0.2,0.1-0.4,0.2-0.5C112.2,29,112.3,29,112.5,29z"/>
	<path class="st0" d="M152.2,70.2V29.7c0-0.2,0.1-0.4,0.2-0.5c0.1-0.1,0.3-0.2,0.5-0.2h31.7c0.2,0,0.4,0.1,0.5,0.2
		c0.1,0.1,0.2,0.3,0.2,0.5v8.8c0,0.6-0.2,1.1-0.5,1.5l-8.8,11.5c-0.5,0.6-1.2,1-2,1h-7.6c-0.2,0-0.4-0.1-0.5-0.3
		c-0.1-0.2-0.1-0.4,0.1-0.6l11.5-15h-17.6v33.7c0,0.5-0.3,0.7-0.8,0.7H153c-0.2,0-0.4-0.1-0.5-0.2C152.3,70.6,152.2,70.4,152.2,70.2
		z"/>
	<path class="st0" d="M192.3,29.1h27.8c0.2,0,0.4,0.1,0.5,0.3s0.1,0.4-0.1,0.6l-4.4,5.8c-0.5,0.6-1.2,1-2,1h-14.8v9.6h15
		c0.5,0,0.7,0.2,0.7,0.7v6.1c0,0.5-0.2,0.8-0.7,0.8h-15v9.5h19c0.2,0,0.4,0.1,0.5,0.2c0.1,0.1,0.2,0.3,0.2,0.5v6.2
		c0,0.5-0.2,0.7-0.7,0.7h-25.9c-0.2,0-0.4-0.1-0.5-0.2c-0.1-0.1-0.2-0.3-0.2-0.5V29.8c0-0.2,0.1-0.4,0.2-0.5
		C192,29.1,192.1,29.1,192.3,29.1z"/>
	<path class="st0" d="M229.3,29.7c0-0.2,0.1-0.4,0.2-0.5c0.1-0.1,0.3-0.2,0.5-0.2h31.7c0.2,0,0.4,0.1,0.5,0.2
		c0.1,0.1,0.2,0.3,0.2,0.5v8.8c0,0.6-0.2,1.1-0.5,1.5l-9.5,12.4l13.6,17.7c0.1,0.2,0.1,0.4,0,0.6c-0.1,0.2-0.3,0.3-0.5,0.3h-7.6
		c-0.8,0-1.5-0.3-2-1l-13.1-17.1c-0.3-0.3-0.3-0.6,0-0.9l11.8-15.4H237v33.7c0,0.5-0.3,0.7-0.8,0.7H230c-0.2,0-0.4-0.1-0.5-0.2
		c-0.1-0.1-0.2-0.3-0.2-0.5V29.7z"/>
</g>
<rect x="389" y="0" width="348" height="153"/>
<rect x="370" y="30.1" style="fill:none;" width="384.7" height="91.4"/>
<text transform="matrix(1 0 0 1 465.3617 72.0731)" class="st1" style="font-family:'VALORANT-Regular'; font-size:60px;">SUPER </text>
<g>
	<path class="st0" d="M465.6,41.4c0-1.9,0.4-3.6,1.2-5.2c0.8-1.6,1.8-3,3.2-4.1c1.3-1.2,2.9-2.1,4.7-2.8c1.8-0.7,3.7-1,5.7-1
		c3.1,0,5.8,0.6,8.1,1.6c2.3,1.1,4,2.4,5.2,3.8c0.3,0.4,0.3,0.7-0.1,1l-4.1,4.3c-0.2,0.2-0.4,0.2-0.6,0.2c-0.2,0-0.4-0.1-0.6-0.3
		c-0.4-0.4-0.8-0.8-1.3-1.2c-0.5-0.4-1.2-0.8-1.9-1.1c-0.7-0.3-1.5-0.6-2.2-0.8c-0.8-0.2-1.6-0.3-2.5-0.3c-1,0-1.9,0.1-2.7,0.5
		c-0.8,0.3-1.5,0.7-2.1,1.2c-0.6,0.5-1,1-1.3,1.7c-0.3,0.6-0.5,1.3-0.5,2c0,1.2,0.4,2.2,1.1,3c0.8,0.8,1.9,1.4,3.4,1.7l5.9,1.1
		c1.9,0.4,3.6,0.9,5.1,1.7c1.5,0.8,2.7,1.7,3.7,2.8c1,1.1,1.7,2.3,2.2,3.6c0.5,1.3,0.8,2.8,0.8,4.2c0,1.6-0.3,3.2-1,4.7
		c-0.7,1.6-1.6,3-2.9,4.2c-1.3,1.2-2.9,2.2-4.8,3c-1.9,0.7-4,1.1-6.5,1.1c-1.7,0-3.3-0.2-4.8-0.5s-2.9-0.8-4.1-1.4
		c-1.2-0.6-2.3-1.2-3.2-1.9c-0.9-0.7-1.7-1.4-2.3-2.1c-0.3-0.3-0.3-0.6,0-1l3.8-4.9c0.1-0.2,0.3-0.3,0.5-0.3c0.2,0,0.4,0.1,0.6,0.2
		c0.6,0.5,1.2,1,1.9,1.6c0.7,0.5,1.4,1,2.2,1.5c0.8,0.4,1.7,0.8,2.6,1.1c0.9,0.3,1.9,0.4,2.9,0.4c2.2,0,3.9-0.5,5-1.4
		c1.2-1,1.7-2.2,1.7-3.7c0-1.2-0.4-2.2-1.3-3.1s-2.1-1.5-3.8-1.8l-5.9-1.2c-3.4-0.7-6-2.1-8-4.1C466.6,47.2,465.6,44.6,465.6,41.4z"
		/>
	<path class="st0" d="M502.4,29h6.2c0.2,0,0.4,0.1,0.5,0.2c0.1,0.1,0.2,0.3,0.2,0.5v26c0,1.1,0.2,2.1,0.6,3.1c0.4,1,0.9,1.9,1.6,2.6
		c0.7,0.8,1.4,1.4,2.4,1.9c0.9,0.5,1.9,0.8,3,0.9c1.2,0.1,2.4,0,3.5-0.4c1.1-0.4,2.1-1,2.9-1.7c0.8-0.8,1.5-1.7,2-2.7
		c0.5-1.1,0.7-2.2,0.7-3.4V29.7c0-0.2,0.1-0.4,0.2-0.5c0.2-0.1,0.3-0.2,0.5-0.2h6.1c0.2,0,0.4,0.1,0.5,0.2c0.1,0.1,0.2,0.3,0.2,0.5
		v26.2c0,2.2-0.4,4.2-1.2,6.1c-0.8,1.9-1.9,3.6-3.3,5c-1.4,1.4-3.1,2.6-5,3.5c-1.9,0.9-3.9,1.3-6.1,1.3c-2.2,0-4.3-0.4-6.3-1.2
		c-2-0.9-3.7-2-5.2-3.5c-1.5-1.5-2.6-3.2-3.5-5.2s-1.3-4.1-1.3-6.3V29.7c0-0.2,0.1-0.4,0.2-0.5C502,29,502.2,29,502.4,29z"/>
	<path class="st0" d="M542.1,70.2V29.7c0-0.2,0.1-0.4,0.2-0.5c0.1-0.1,0.3-0.2,0.5-0.2h31.7c0.2,0,0.4,0.1,0.5,0.2
		c0.1,0.1,0.2,0.3,0.2,0.5v8.8c0,0.6-0.2,1.1-0.5,1.5l-8.8,11.5c-0.5,0.6-1.2,1-2,1h-7.6c-0.2,0-0.4-0.1-0.5-0.3
		c-0.1-0.2-0.1-0.4,0.1-0.6l11.5-15h-17.6v33.7c0,0.5-0.3,0.7-0.8,0.7h-6.2c-0.2,0-0.4-0.1-0.5-0.2
		C542.2,70.6,542.1,70.4,542.1,70.2z"/>
	<path class="st0" d="M582.2,29.1H610c0.2,0,0.4,0.1,0.5,0.3s0.1,0.4-0.1,0.6l-4.4,5.8c-0.5,0.6-1.2,1-2,1h-14.8v9.6h15
		c0.5,0,0.7,0.2,0.7,0.7v6.1c0,0.5-0.2,0.8-0.7,0.8h-15v9.5h19c0.2,0,0.4,0.1,0.5,0.2c0.1,0.1,0.2,0.3,0.2,0.5v6.2
		c0,0.5-0.2,0.7-0.7,0.7h-25.9c-0.2,0-0.4-0.1-0.5-0.2c-0.1-0.1-0.2-0.3-0.2-0.5V29.8c0-0.2,0.1-0.4,0.2-0.5
		C581.8,29.1,582,29.1,582.2,29.1z"/>
	<path class="st0" d="M619.1,29.7c0-0.2,0.1-0.4,0.2-0.5c0.1-0.1,0.3-0.2,0.5-0.2h31.7c0.2,0,0.4,0.1,0.5,0.2
		c0.1,0.1,0.2,0.3,0.2,0.5v8.8c0,0.6-0.2,1.1-0.5,1.5l-9.5,12.4l13.6,17.7c0.1,0.2,0.1,0.4,0,0.6c-0.1,0.2-0.3,0.3-0.5,0.3h-7.6
		c-0.8,0-1.5-0.3-2-1l-13.1-17.1c-0.3-0.3-0.3-0.6,0-0.9l11.8-15.4h-17.6v33.7c0,0.5-0.3,0.7-0.8,0.7h-6.2c-0.2,0-0.4-0.1-0.5-0.2
		c-0.1-0.1-0.2-0.3-0.2-0.5V29.7z"/>
</g>
<path d="M32,90h-8c-2.8,0-5-2.2-5-5v-5c0-2.8,2.2-5,5-5h8V90z"/>
<path class="st0" d="M45,104h-6c-2.8,0-5-2.2-5-5V66c0-2.8,2.2-5,5-5h6c2.8,0,5,2.2,5,5v33C50,101.8,47.8,104,45,104z"/>
<path class="st0" d="M63,111h-6c-2.8,0-5-2.2-5-5V59c0-2.8,2.2-5,5-5h6c2.8,0,5,2.2,5,5v47C68,108.8,65.8,111,63,111z"/>
<rect x="70" y="75" width="204" height="16"/>
<path class="st0" d="M287,111h-6c-2.8,0-5-2.2-5-5V59c0-2.8,2.2-5,5-5h6c2.8,0,5,2.2,5,5v47C292,108.8,289.8,111,287,111z"/>
<path class="st0" d="M305,104h-6c-2.8,0-5-2.2-5-5V66c0-2.8,2.2-5,5-5h6c2.8,0,5,2.2,5,5v33C310,101.8,307.8,104,305,104z"/>
<path d="M320,91h-8V76h8c2.8,0,5,2.2,5,5v5C325,88.8,322.8,91,320,91z"/>
<rect x="506" y="97.1" style="fill:none;" width="111.9" height="91.4"/>
<text transform="matrix(1 0 0 1 518.9677 139.0731)" class="st0" style="font-family:'VALORANT-Regular'; font-size:60px;">FIT</text>
<path class="st1" d="M421.9,90h-8c-2.8,0-5-2.2-5-5v-5c0-2.8,2.2-5,5-5h8V90z"/>
<path class="st0" d="M434.9,104h-6c-2.8,0-5-2.2-5-5V66c0-2.8,2.2-5,5-5h6c2.8,0,5,2.2,5,5v33C439.9,101.8,437.6,104,434.9,104z"/>
<path class="st0" d="M452.9,111h-6c-2.8,0-5-2.2-5-5V59c0-2.8,2.2-5,5-5h6c2.8,0,5,2.2,5,5v47C457.9,108.8,455.6,111,452.9,111z"/>
<rect x="459.9" y="75" class="st1" width="204" height="16"/>
<path class="st0" d="M676.9,111h-6c-2.8,0-5-2.2-5-5V59c0-2.8,2.2-5,5-5h6c2.8,0,5,2.2,5,5v47C681.9,108.8,679.6,111,676.9,111z"/>
<path class="st0" d="M694.9,104h-6c-2.8,0-5-2.2-5-5V66c0-2.8,2.2-5,5-5h6c2.8,0,5,2.2,5,5v33C699.9,101.8,697.6,104,694.9,104z"/>
<path class="st1" d="M709.9,91h-8V76h8c2.8,0,5,2.2,5,5v5C714.9,88.8,712.6,91,709.9,91z"/>
<g>
	<path class="st1" d="M521.6,97.1h27.8c0.2,0,0.4,0.1,0.5,0.3c0.1,0.2,0.1,0.4-0.1,0.6l-4.4,5.8c-0.5,0.6-1.2,1-2,1h-14.8v9.6h15
		c0.5,0,0.7,0.2,0.7,0.7v6.1c0,0.5-0.2,0.8-0.7,0.8h-15v16.4c0,0.5-0.3,0.7-0.8,0.7h-6.2c-0.2,0-0.4-0.1-0.5-0.2
		c-0.1-0.1-0.2-0.3-0.2-0.5V97.8c0-0.2,0.1-0.4,0.2-0.5C521.2,97.1,521.4,97.1,521.6,97.1z"/>
	<path class="st1" d="M555.3,97.1h6.2c0.5,0,0.8,0.2,0.8,0.7v40.6c0,0.5-0.3,0.7-0.8,0.7h-6.2c-0.2,0-0.4-0.1-0.5-0.2
		c-0.1-0.1-0.2-0.3-0.2-0.5V97.8c0-0.2,0.1-0.4,0.2-0.5C554.9,97.1,555.1,97.1,555.3,97.1z"/>
	<path class="st1" d="M568.8,97.7c0-0.2,0.1-0.4,0.2-0.5c0.1-0.1,0.3-0.2,0.5-0.2h26c0.8,0,1.5,0.3,2,1l4.4,5.8
		c0.2,0.2,0.2,0.4,0.1,0.6c-0.1,0.2-0.3,0.3-0.5,0.3h-13.4v33.7c0,0.5-0.2,0.7-0.7,0.7h-6.2c-0.5,0-0.7-0.2-0.7-0.7v-33.7h-11
		c-0.2,0-0.4-0.1-0.5-0.2c-0.1-0.1-0.2-0.3-0.2-0.5V97.7z"/>
</g>
</svg>
