<?xml version="1.0" encoding="utf-8"?>
<!-- Generator: Adobe Illustrator 25.4.1, SVG Export Plug-In . SVG Version: 6.00 Build 0)  -->
<svg version="1.1" id="Layer_2" xmlns="http://www.w3.org/2000/svg" xmlns:xlink="http://www.w3.org/1999/xlink" x="0px" y="0px"
	 viewBox="0 0 512 512" style="enable-background:new 0 0 512 512;" xml:space="preserve">
<style type="text/css">
	.st0{fill:#264DE4;}
	.st1{fill:#2965F1;}
	.st2{fill:#EBEBEB;}
	.st3{fill:#FFFFFF;}
</style>
<g id="layer1" transform="translate(-193.633,-276.3622)">
	<g id="g3013" transform="translate(119,276.3622)">
		<polygon id="polygon2989" class="st0" points="555.6,0 514.7,460.8 330.5,512 146.6,460.8 105.6,0 		"/>
		<polygon id="polygon2991" class="st1" points="479.7,431.4 514.5,37.6 330.6,37.6 330.6,472.8 		"/>
		<polygon id="polygon2993" class="st2" points="199.6,208.6 204.6,265.1 330.6,265.1 330.6,208.6 		"/>
		<polygon id="polygon2995" class="st2" points="330.6,94.1 330.5,94.1 189.4,94.1 194.5,150.8 330.6,150.8 		"/>
		<polygon id="polygon2997" class="st2" points="330.6,414.1 330.6,355.3 330.5,355.5 267.7,338.4 263.6,293.4 233.3,293.4 
			207.2,293.4 215,382.1 330.5,414.3 		"/>
		<polygon id="polygon3005" class="st3" points="399.8,265.1 393.3,338.4 330.5,355.5 330.5,414.1 446,382.1 446.8,372.6 
			460.1,223.7 461.5,208.6 471.6,94.1 330.5,94.1 330.5,150.8 409.9,150.8 404.8,208.6 330.5,208.6 330.5,265.1 		"/>
	</g>
</g>
</svg>
