<?xml version="1.0" encoding="utf-8"?>
<!-- Generator: Adobe Illustrator 25.2.1, SVG Export Plug-In . SVG Version: 6.00 Build 0)  -->
<svg version="1.1" id="Camada_1" xmlns="http://www.w3.org/2000/svg" xmlns:xlink="http://www.w3.org/1999/xlink" x="0px" y="0px"
	 viewBox="0 0 1366 768" style="enable-background:new 0 0 1366 768;" xml:space="preserve">
<style type="text/css">
	.st0{opacity:0.38;}
</style>
<path class="st0" d="M376.3,273.6c-1.5,0-2.8,1.2-2.8,2.8v244.9c0,1.5,1.2,2.8,2.8,2.8h52.9c1.5,0,2.8-1.2,2.8-2.8V276.4
	c0-1.5-1.2-2.8-2.8-2.8L376.3,273.6L376.3,273.6z"/>
<path class="st0" d="M362,503.6V295.5c0-1.5-1.2-2.8-2.8-2.8h-52.9c-1.5,0-2.8,1.2-2.8,2.8v208.1c0,1.5,1.2,2.8,2.8,2.8h52.9
	C360.7,506.4,362,505.2,362,503.6z"/>
<path class="st0" d="M289.2,316.5h-52.9c-1.5,0-2.8,1.2-2.8,2.8v46l-19.6,9.4c-0.7,0.3-1.1,1-1.1,1.8v44.9c0,0.7,0.4,1.4,1.1,1.7
	l19.6,10.2v40.7c0,1.5,1.2,2.8,2.8,2.8h52.9c1.5,0,2.8-1.2,2.8-2.8V319.2C292,317.7,290.7,316.5,289.2,316.5z"/>
<path class="st0" d="M996.5,271.4c-1.5,0-2.8,1.2-2.8,2.8V519c0,1.5,1.2,2.8,2.8,2.8h52.9c1.5,0,2.8-1.2,2.8-2.8V274.1
	c0-1.5-1.2-2.8-2.8-2.8L996.5,271.4L996.5,271.4z"/>
<path class="st0" d="M1119.4,290.5h-52.9c-1.5,0-2.8,1.2-2.8,2.8v208.1c0,1.5,1.2,2.8,2.8,2.8h52.9c1.5,0,2.8-1.2,2.8-2.8V293.3
	C1122.2,291.7,1120.9,290.5,1119.4,290.5z"/>
<path class="st0" d="M1211.7,372.4l-19.6-9.4v-46c0-1.5-1.2-2.8-2.8-2.8h-52.9c-1.5,0-2.8,1.2-2.8,2.8v154.7c0,1.5,1.2,2.8,2.8,2.8
	h52.9c1.5,0,2.8-1.2,2.8-2.8V431l19.6-10.2c0.7-0.3,1.1-1,1.1-1.7v-44.9C1212.8,373.4,1212.4,372.7,1211.7,372.4z"/>
<g class="st0">
	<path d="M979.4,371.4h-50.1V206.7l-45.7-15.8l-147.5-51v50.1l147.5,51v190.8c0,96.5-76.3,174.7-170.4,174.7
		s-171.9-78.2-171.9-174.7V241l147.5-51v-50.1l-147.5,51l-45.7,15.8v166.9h-49.4c-1.5,0-2.6,1.2-2.6,2.6v42.1c0,1.5,1.2,2.6,2.6,2.6
		h49.4v10.8c0,123.3,97.1,223.2,216.8,223.2s216.8-99.9,216.8-223.2v-13.1h50.1c1.5,0,2.7-1.2,2.7-2.6V374
		C982.1,372.5,980.9,371.4,979.4,371.4z"/>
	<path d="M837,423.6l0.1,0V421v-47.5v-49.3v-48.6v-1.5l-101-34.9v50.1l55.3,19.1v49.3l-55.3-19.1v50.1l55.3,19.1V421h0
		c0,35.3-23.2,65.2-55.2,75.3V545C793.4,534,835.8,484,837,423.6z"/>
	<path d="M688.8,388.7v-50.1v-49.3V241v-1.9l-101,34.9v50.1l55.3-19.1v49.3l-55.3,19.1v7.6v42.5l0.1,0
		c1.2,60.4,43.6,110.4,100.8,121.3v-48.7c-32-10.1-55.2-40-55.2-75.3l0.1-13.2L688.8,388.7z"/>
</g>
</svg>
