<svg id="Layer_1" data-name="Layer 1" xmlns="http://www.w3.org/2000/svg" viewBox="0 0 375.03 185.06"><defs><style>.cls-1{fill:#1d1d1b;}.cls-2{font-size:99.33px;font-family:Tahoma;}.cls-2,.cls-3{fill:#fff;}.cls-4{fill:#e30613;}</style></defs><rect class="cls-1" width="375.03" height="185.06"/><text class="cls-2" transform="translate(42.37 88.33)">SUPER</text><path class="cls-3" d="M212.17,265.28H183.7v15.11h26.19v15.28H183.7V330.1H166.76V250h45.41Z" transform="translate(-62.48 -157.47)"/><path class="cls-3" d="M300.1,330.1V265.28h-20V250h57.12v15.28h-20V330.1Z" transform="translate(-62.48 -157.47)"/><path class="cls-4" d="M265.89,271.21l.06-8.95a1.4,1.4,0,0,0-1.46-1.34l-35-.23A1.42,1.42,0,0,0,228,262l-.06,8.94a1.43,1.43,0,0,0,1.47,1.35l35,.23A1.41,1.41,0,0,0,265.89,271.21Z" transform="translate(-62.48 -157.47)"/><path class="cls-4" d="M261.13,257.83l0-6.66a1,1,0,0,0-1.09-1L234,250a1,1,0,0,0-1.1,1l0,6.66a1.05,1.05,0,0,0,1.09,1l26.07.17A1.06,1.06,0,0,0,261.13,257.83Z" transform="translate(-62.48 -157.47)"/><path class="cls-4" d="M227.68,309l-.06,8.94a1.42,1.42,0,0,0,1.47,1.35l35,.22a1.4,1.4,0,0,0,1.48-1.32l.06-8.95a1.42,1.42,0,0,0-1.47-1.35l-35-.22A1.41,1.41,0,0,0,227.68,309Z" transform="translate(-62.48 -157.47)"/><path class="cls-4" d="M232.44,322.36l0,6.65a1.07,1.07,0,0,0,1.09,1l26.07.16a1,1,0,0,0,1.11-1l0-6.66a1.06,1.06,0,0,0-1.09-1l-26.07-.16A1.05,1.05,0,0,0,232.44,322.36Z" transform="translate(-62.48 -157.47)"/><rect class="cls-3" x="230.36" y="286.87" width="32.85" height="6.45" transform="translate(-107.37 377.53) rotate(-89.63)"/></svg>