<svg id="Layer_1" data-name="Layer 1" xmlns="http://www.w3.org/2000/svg" viewBox="0 0 294.23 170.16"><defs><style>.cls-1{font-size:99.33px;font-family:Tahoma;}.cls-1,.cls-2{fill:#231f20;}.cls-3{fill:#ec1c24;}</style></defs><text class="cls-1" transform="translate(0 85.77)">SUPER</text><path class="cls-2" d="M207.79,257.62H179.33v15.11h26.18V288H179.33v34.43h-17v-80.1h45.41Z" transform="translate(-100.48 -152.37)"/><path class="cls-2" d="M295.73,322.44V257.62h-20V242.34H332.8v15.28h-20v64.82Z" transform="translate(-100.48 -152.37)"/><path class="cls-3" d="M261.52,263.55l.06-9a1.42,1.42,0,0,0-1.47-1.34l-35-.23a1.41,1.41,0,0,0-1.48,1.33l-.06,8.94a1.4,1.4,0,0,0,1.46,1.35l35,.23A1.42,1.42,0,0,0,261.52,263.55Z" transform="translate(-100.48 -152.37)"/><path class="cls-3" d="M256.75,250.17l0-6.66a1,1,0,0,0-1.09-1l-26.07-.17a1.05,1.05,0,0,0-1.1,1l0,6.66a1,1,0,0,0,1.09,1l26.07.17A1.05,1.05,0,0,0,256.75,250.17Z" transform="translate(-100.48 -152.37)"/><path class="cls-3" d="M223.3,301.32l-.05,8.94a1.41,1.41,0,0,0,1.46,1.35l35,.22a1.41,1.41,0,0,0,1.49-1.32l0-8.95a1.41,1.41,0,0,0-1.46-1.35l-35-.22A1.41,1.41,0,0,0,223.3,301.32Z" transform="translate(-100.48 -152.37)"/><path class="cls-3" d="M228.07,314.7l0,6.65a1.05,1.05,0,0,0,1.09,1l26.07.17a1.05,1.05,0,0,0,1.1-1l0-6.66a1.05,1.05,0,0,0-1.1-1l-26.07-.17A1,1,0,0,0,228.07,314.7Z" transform="translate(-100.48 -152.37)"/><rect x="225.98" y="279.21" width="32.85" height="6.45" transform="translate(-142.06 370.65) rotate(-89.63)"/></svg>